<svg xmlns="http://www.w3.org/2000/svg" viewBox="0 0 461.123 461.123"><path fill="#fff" d="M428.871 108.002c12.453-37.944-9.722-80.822-40.675-104.688-16.639-12.827-33.782 14.843-17.346 27.507 17.533 13.518 31.978 38.261 28.466 60.696 10.388 3.967 20.386 9.551 29.555 16.485zm-64.89-15.201v8.129zm57.77 30.344c-8.494-6.877-18.005-12.551-28.06-16.42-9.616-3.698-19.687-5.796-29.718-5.796-27.71.008-55.161 15.891-71.946 57.445-48.853 120.921-178.488 215.384-206.669 236.022-22.28 16.314-136.129 66.727-48.308 66.727 23.28 0 60.737-3.544 117.824-12.209 272.429-41.334 298.733-242.37 298.733-242.37 10.558-29.197-5.617-62.175-31.856-83.399zm-26.678 158.678c-10.559 18.094-38.668 1.74-28.076-16.412 15.054-25.8 56.713-74.84 18.021-96.641-18.265-10.291-1.878-38.383 16.412-28.076 61.435 34.621 19.199 97.324-6.357 141.129z"/></svg>