<svg xmlns="http://www.w3.org/2000/svg" viewBox="0 0 125.4 78.4"><path fill="#EC1C2E" d="M77.6 61.7h1.2l1.2-.1 1.1-.2 1.1-.1 1.1-.3 1.1-.3 1-.4 1-.4 1-.4 1-.5.9-.6 1-.5.8-.7.9-.6.8-.7.8-.8.7-.8.7-.8.7-.9.6-.8.6-1 .6-.9.5-1 .4-1 .4-1 .4-1 .3-1.1.2-1.1.2-1.1.2-1.1.1-1.2V38l-.1-1.1-.2-1.2-.2-1.1-.2-1-.3-1.1-.4-1.1-.4-1-.4-1-.5-.9-.6-1-.6-.9-.6-.9-.7-.8-.7-.8-.7-.8-.8-.8-.8-.7-.9-.6-.8-.7-1-.6-.9-.5-1-.5-1-.4-1-.4-1-.4-1.1-.3-1.1-.3-1.1-.2-1.1-.1-1.2-.1h-2.3l-1.2.1-1.1.1-1.1.2-1.1.3-1.1.3-1 .4-1 .4-1 .4-1 .5-.9.5-1 .6-.8.7-.9.6-.8.7-.8.8-.7.8-.7.8-.7.8-.6.9-.6.9-.6 1-.4.9-.5 1-.4 1-.4 1.1-.3 1.1-.2 1-.2 1.1-.1 1.2-.1 1.1-.1 1.2.1 1.1.1 1.2.1 1.1.2 1.1.2 1.1.3 1.1.4 1 .4 1 .5 1 .4 1 .6.9.6 1 .6.8.7.9.7.8.7.8.8.8.8.7.9.6.8.7 1 .5.9.6 1 .5 1 .4 1 .4 1 .4 1.1.3 1.1.3 1.1.1 1.1.2 1.2.1"/><path fill="#0084C4" d="M47.8 61.7h1.1l1.2-.1 1.1-.2 1.1-.1 1.1-.3 1.1-.3 1-.4 1.1-.4 1-.4.9-.5 1-.6.9-.5.9-.7.8-.6.8-.7.8-.8.8-.8.7-.8.6-.9.7-.8.5-1 .6-.9.5-1 .4-1 .4-1 .4-1 .3-1.1.2-1.1.2-1.1.2-1.1.1-1.2V38l-.1-1.1-.2-1.2-.2-1.1-.2-1-.3-1.1-.4-1.1-.4-1-.4-1-.5-.9-.6-1-.5-.9-.7-.9-.6-.8-.7-.8-.8-.8-.8-.8-.8-.7-.8-.6-.9-.7-.9-.6-1-.5-.9-.5-1-.4-1.1-.4-1-.4-1.1-.3-1.1-.3-1.1-.2-1.1-.1-1.2-.1h-2.3l-1.1.1-1.1.1-1.2.2-1.1.3-1 .3-1.1.4-1 .4-1 .4-1 .5-.9.5-.9.6-.9.7-.9.6-.8.7-.8.8-.7.8-.7.8-.7.8-.6.9-.6.9-.5 1-.5.9-.5 1-.4 1-.3 1.1-.4 1.1-.2 1-.2 1.1-.1 1.2-.1 1.1-.1 1.2.1 1.1.1 1.2.1 1.1.2 1.1.2 1.1.4 1.1.3 1 .4 1 .5 1 .5 1 .5.9.6 1 .6.8.7.9.7.8.7.8.8.8.8.7.9.6.9.7.9.5.9.6 1 .5 1 .4 1 .4 1.1.4 1 .3 1.1.3 1.2.1 1.1.2 1.1.1"/><path fill="#EC1C2E" d="M59.9 25.3h11.5V24H61m-2.9 3.9h13.3v-1.2H59m-2.2 3.9h14.6v-1.2h-14m-1.5 3.9h15.5V32H56.3m-.9 4h16v-1.3H55.6m-.3 6.4h16.1v-1.2H55.1m.5 4.1h15.8v-1.3h-16m1 3.5h15V45H56m1.5 4h13.9v-1.2H56.9m2.2 4h12.3v-1.2H58.3m2.9 3.9h10v-1.2H60.1"/><g fill="#EC1C2E"><path d="M96.5 53l.1-.2.1-.2.1-.2.2-.1.2-.1.2-.1h.4l.2.1.2.1.1.1.2.2.1.2v.2h-.2v-.2l-.1-.1-.1-.1-.1-.2h-.2l-.2-.1h-.3l-.2.1h-.1l-.2.2-.1.1v.1l-.1.2"/><path d="M97.2 53v-.3h.6l.1.1h.1v.2h-.2v-.1l-.1-.1h-.3v.2m-.9.2V53h.2v.2"/><path d="M97.2 53.2V53h.2v.1h.4V53h.2v.2m.4 0V53h.2l.1.2"/><path d="M96.5 53.2v.2l.1.2.1.2.1.2.2.1.2.1.2.1h.4l.2-.1.2-.1.1-.1.2-.2.1-.2v-.2l.1-.2h-.3v.4l-.1.1-.1.2-.1.1-.2.1h-.7l-.1-.1-.2-.1-.1-.2v-.1l-.1-.2v-.2"/><path d="M97.2 53.2v.4h.2v-.3h.2l.2.3h.2l-.3-.3.1-.1h.2"/></g><path fill="#FFF" d="M72.8 37.3h-.2l-.1-.1h-.6l-.1-.1h-2.1l-.2.1h-.2l-.1.1-.2.1-.1.1-.1.1-.1.1-.1.1v.1l-.1.1v.2l.1.1v.2l.1.1.1.1.2.2.3.2.3.1.3.1.3.1.4.2.3.1.4.1.3.2.3.2.2.3.3.3.1.4.2.5v1.2l-.1.5-.2.5-.1.4-.3.3-.2.3-.3.3-.3.2-.3.2-.3.2-.4.1-.4.1-.3.1-.4.1h-3.5l-.2-.1H65l-.2-.1h-.2l-.2-.1h-.2l-.2-.1-.1-.1.4-2.3h.1l.1.1h.2l.2.1h.2l.2.1h.5l.2.1h.6l.3.1h1.3l.3-.1.2-.1.2-.1.1-.1.1-.2.1-.1.1-.2v-.1l.1-.2v-.2l-.1-.1v-.1l-.1-.1-.1-.1-.2-.1-.1-.1-.2-.1-.1-.1-.2-.1h-.2l-.2-.1-.2-.1-.2-.1-.2-.1-.2-.1-.2-.1-.2-.1-.2-.1-.2-.1-.2-.2-.2-.1-.1-.2-.2-.2-.1-.2-.1-.2-.1-.3-.1-.2v-1.2l.1-.2v-.4l.1-.2v-.2l.1-.2.1-.1.1-.2v-.1l.1-.2.1-.1.2-.2.1-.1.1-.1.1-.1.2-.1.1-.1.2-.1.2-.1.2-.1h.2l.2-.1.2-.1h.5l.2-.1h.6l.3-.1h1.7l.3.1h.9l.1.1h.6l.1.1h.1"/><path fill="none" stroke="#FFF" stroke-width=".215" d="M72.8 37.3h-.2l-.1-.1h-.6l-.1-.1h-2.1l-.2.1h-.2l-.1.1-.2.1-.1.1-.1.1-.1.1-.1.1v.1l-.1.1v.2l.1.1v.2l.1.1.1.1.2.2.3.2.3.1.3.1.3.1.4.2.3.1.4.1.3.2.3.2.2.3.3.3.1.4.2.5v1.2l-.1.5-.2.5-.1.4-.3.3-.2.3-.3.3-.3.2-.3.2-.3.2-.4.1-.4.1-.3.1-.4.1h-3.5l-.2-.1H65l-.2-.1h-.2l-.2-.1h-.2l-.2-.1-.1-.1.4-2.3h.1l.1.1h.2l.2.1h.2l.2.1h.5l.2.1h.6l.3.1h1.3l.3-.1.2-.1.2-.1.1-.1.1-.2.1-.1.1-.2v-.1l.1-.2v-.2l-.1-.1v-.1l-.1-.1-.1-.1-.2-.1-.1-.1-.2-.1-.1-.1-.2-.1h-.2l-.2-.1-.2-.1-.2-.1-.2-.1-.2-.1-.2-.1-.2-.1-.2-.1-.2-.1-.2-.2-.2-.1-.1-.2-.2-.2-.1-.2-.1-.2-.1-.3-.1-.2v-1.2l.1-.2v-.4l.1-.2v-.2l.1-.2.1-.1.1-.2v-.1l.1-.2.1-.1.2-.2.1-.1.1-.1.1-.1.2-.1.1-.1.2-.1.2-.1.2-.1h.2l.2-.1.2-.1h.5l.2-.1h.6l.3-.1h1.7l.3.1h.9l.1.1h.6l.1.1h.1l-.5 2.4"/><path fill="#FFF" d="M75.2 32.3h3l-.5 2.6h1.8l-.4 2.4-1.8-.1-1 5.9v.5l.1.1h.1v.1h.1l.1.1h.5l.1.1h.4l.2-.1h.3l.1-.1h.2l-.3 2h-.1v.1h-.2l-.1.1h-.2l-.1.1h-.3l-.1.1h-2.3l-.3-.1-.3-.1-.2-.1-.2-.1-.2-.1-.2-.1-.1-.2-.1-.2v-1.3"/><path fill="none" stroke="#FFF" stroke-width=".215" d="M75.2 32.3h3l-.5 2.6h1.8l-.4 2.4-1.8-.1-1 5.9v.5l.1.1h.1v.1h.1l.1.1h.5l.1.1h.4l.2-.1h.3l.1-.1h.2l-.3 2h-.1v.1h-.2l-.1.1h-.2l-.1.1h-.3l-.1.1h-2.3l-.3-.1-.3-.1-.2-.1-.2-.1-.2-.1-.2-.1-.1-.2-.1-.2v-1.3l2-11.6"/><path fill="#FFF" d="M57.1 41.3v.8l.1.2.1.2.1.1.1.2.2.2.1.2.2.1.2.2.2.1.2.1.2.1h.5l.3.1h1.9l.3-.1.3-.1.3-.1.3-.1.3-.1.3-.2.3-.2-.4 2.7-.2.1h-.2l-.1.1-.2.1h-.2l-.1.1h-.4l-.2.1h-2.9l-.3-.1h-.3l-.2-.1h-.3l-.3-.1-.2-.1-.3-.1-.2-.1-.3-.1-.2-.1-.2-.2-.3-.2-.2-.1-.2-.2-.2-.2-.1-.3-.2-.2-.1-.3-.2-.2-.1-.3-.1-.3-.1-.4v-.3l-.1-.4v-1.6l.1-.2v-.5l.1-.2v-.2l.1-.2.1-.3v-.2l.1-.2.1-.2.1-.3.1-.2.2-.2.1-.3.1-.2.2-.2.2-.2.2-.2.2-.2.2-.2.3-.2.2-.1.3-.2.3-.1.3-.2.3-.1.4-.1h.4l.4-.1h1.7l.2.1h.4l.2.1.3.1.2.1h.2l.2.1.2.2.2.1.1.1.2.2.2.2.1.1.2.3.1.2.1.2.1.3.1.2.1.3v.3l.1.4v1.1l-.1.4v.4l-.1.5-.1.6h-7.7l.4-2h4.6l.1-.3v-.5l-.1-.2v-.2l-.1-.2-.1-.2-.1-.1-.2-.2-.1-.1-.1-.1h-.2l-.2-.1h-.1l-.2-.1h-.4l-.2.1h-.2l-.2.1h-.2l-.1.1-.2.1-.1.2-.2.1-.1.2-.1.1-.1.2-.1.2-.1.2v.2l-.1.3"/><path fill="none" stroke="#FFF" stroke-width=".215" d="M57.1 41.3v.8l.1.2.1.2.1.1.1.2.2.2.1.2.2.1.2.2.2.1.2.1.2.1h.5l.3.1h1.9l.3-.1.3-.1.3-.1.3-.1.3-.1.3-.2.3-.2-.4 2.7-.2.1h-.2l-.1.1-.2.1h-.2l-.1.1h-.4l-.2.1h-2.9l-.3-.1h-.3l-.2-.1h-.3l-.3-.1-.2-.1-.3-.1-.2-.1-.3-.1-.2-.1-.2-.2-.3-.2-.2-.1-.2-.2-.2-.2-.1-.3-.2-.2-.1-.3-.2-.2-.1-.3-.1-.3-.1-.4v-.3l-.1-.4v-1.6l.1-.2v-.5l.1-.2v-.2l.1-.2.1-.3v-.2l.1-.2.1-.2.1-.3.1-.2.2-.2.1-.3.1-.2.2-.2.2-.2.2-.2.2-.2.2-.2.3-.2.2-.1.3-.2.3-.1.3-.2.3-.1.4-.1h.4l.4-.1h1.7l.2.1h.4l.2.1.3.1.2.1h.2l.2.1.2.2.2.1.1.1.2.2.2.2.1.1.2.3.1.2.1.2.1.3.1.2.1.3v.3l.1.4v1.1l-.1.4v.4l-.1.5-.1.6h-7.7l.4-2h4.6l.1-.3v-.5l-.1-.2v-.2l-.1-.2-.1-.2-.1-.1-.2-.2-.1-.1-.1-.1h-.2l-.2-.1h-.1l-.2-.1h-.4l-.2.1h-.2l-.2.1h-.2l-.1.1-.2.1-.1.2-.2.1-.1.2-.1.1-.1.2-.1.2-.1.2v.2l-.1.3-.4 2.2"/><path fill="#FFF" d="M53 43.9l-.4 2.3h-2.7V46l.1-.2v-.4l.1-.1V45l-.1.1-.2.2-.2.2-.2.1-.2.2-.3.1-.3.1-.3.1-.3.1-.3.1-.3.1h-1.5l-.4-.1-.3-.1-.3-.2-.3-.1-.2-.2-.2-.2-.2-.2-.2-.2-.1-.3-.1-.2-.1-.2v-.3l-.1-.2v-1.1l.1-.4.1-.4.1-.3.2-.4.2-.3.2-.3.2-.3.3-.2.3-.2.3-.2.3-.2.4-.1.3-.1.4-.1.3-.1h.4l.2-.1h.7l.2-.1h2.2l.1-.2v-.7l-.1-.1v-.1l-.1-.1-.1-.1v-.1l-.1-.1h-.1l-.1-.1-.1-.1H50l-.2-.1h-1.9l-.3.1h-.7l-.3.1h-.3l-.3.1h-.2l-.3.1-.1.1h-.2l-.1.1.7-2.5.3-.1.2-.1.2-.1.3-.1h.3l.2-.1h.9l.3-.1h2l.3.1h.4l.3.1.3.1.4.1.3.2.3.2.3.2.3.2.2.3.2.2.2.4.1.3.1.4v.4l-.1.4"/><path fill="none" stroke="#FFF" stroke-width=".215" d="M53 43.9l-.4 2.3h-2.7V46l.1-.2v-.4l.1-.1V45l-.1.1-.2.2-.2.2-.2.1-.2.2-.3.1-.3.1-.3.1-.3.1-.3.1-.3.1h-1.5l-.4-.1-.3-.1-.3-.2-.3-.1-.2-.2-.2-.2-.2-.2-.2-.2-.1-.3-.1-.2-.1-.2v-.3l-.1-.2v-1.1l.1-.4.1-.4.1-.3.2-.4.2-.3.2-.3.2-.3.3-.2.3-.2.3-.2.3-.2.4-.1.3-.1.4-.1.3-.1h.4l.2-.1h.7l.2-.1h2.2l.1-.2v-.7l-.1-.1v-.1l-.1-.1-.1-.1v-.1l-.1-.1h-.1l-.1-.1-.1-.1H50l-.2-.1h-1.9l-.3.1h-.7l-.3.1h-.3l-.3.1h-.2l-.3.1-.1.1h-.2l-.1.1.7-2.5.3-.1.2-.1.2-.1.3-.1h.3l.2-.1h.9l.3-.1h2l.3.1h.4l.3.1.3.1.4.1.3.2.3.2.3.2.3.2.2.3.2.2.2.4.1.3.1.4v.4l-.1.4-1.1 5.6"/><path fill="#0084C4" d="M50.5 41.1l-.1-.1h-.1l-.1-.1h-.7l-.2.1h-.5l-.1.1h-.4l-.1.1h-.1l-.1.1h-.1l-.2.1-.1.1-.1.1-.2.1-.1.1-.1.1-.1.1-.1.2-.1.1-.1.2v.8l.1.2.1.2.2.1.2.1h1l.2-.1h.3l.2-.1.2-.1.2-.1.1-.1.2-.1.1-.2.1-.1.1-.1v-.1l.1-.1.1-.2v-.2l.1-.2v-.4l.1-.1v-.4"/><path fill="#FFF" d="M30.7 46.2h-2.9l2.4-13.9h5.1l.4 8.3 3.5-8.3h5.2L42 46.2h-2.9l1.8-10.4h-.1l-4.3 10.4h-3.3v-.4l-.1-1.2L33 43l-.1-1.9-.1-1.9-.1-1.7v-1.2l-.1-.5h-.1"/><path fill="none" stroke="#FFF" stroke-width=".215" d="M30.7 46.2h-2.9l2.4-13.9h5.1l.4 8.3 3.5-8.3h5.2L42 46.2h-2.9l1.8-10.4h-.1l-4.3 10.4h-3.3v-.4l-.1-1.2L33 43l-.1-1.9-.1-1.9-.1-1.7v-1.2l-.1-.5h-.1l-1.8 10.4"/><path fill="#FFF" d="M79 46.2h3l1.1-6v-.4l.1-.3.1-.2.1-.2.1-.2.1-.2.1-.2.2-.1.2-.2.2-.1.3-.1.3-.1.3-.1.4-.1h.7v.1-.1l.1-.1v-.2l.1-.3v-.2l.1-.3.1-.3.1-.3.1-.2.1-.2.1-.2.1-.2.1-.1.1-.2v-.1h-.3l-.1-.1h-.1l-.3.1h-.3l-.3.1h-.2l-.2.1-.3.1-.2.1-.2.2-.1.1-.2.2-.2.1-.1.2-.2.2-.1.2-.2.2-.1.2.3-1.9h-3l-2 11.3"/><path fill="none" stroke="#FFF" stroke-width=".215" d="M79 46.2h3l1.1-6v-.4l.1-.3.1-.2.1-.2.1-.2.1-.2.1-.2.2-.1.2-.2.2-.1.3-.1.3-.1.3-.1.4-.1h.7v.1-.1l.1-.1v-.2l.1-.3v-.2l.1-.3.1-.3.1-.3.1-.2.1-.2.1-.2.1-.2.1-.1.1-.2v-.1h-.3l-.1-.1h-.1l-.3.1h-.3l-.3.1h-.2l-.2.1-.3.1-.2.1-.2.2-.1.1-.2.2-.2.1-.1.2-.2.2-.1.2-.2.2-.1.2.3-1.9h-3l-2 11.3"/><path fill="#FFF" d="M92 34.7l.4.1h.9l.3.1.3.1.3.1.3.1.2.1.3.1.2.1.2.2.3.1.2.2.2.1.1.2.2.2.2.2.1.2.2.3.1.2.1.2.1.3.1.2.1.3.1.3v.2l.1.3v1.6l-.1.4v.3l-.1.4-.1.3-.1.3-.1.3-.1.3-.1.3-.1.2-.2.3-.1.2-.2.3-.2.2-.2.2-.2.2-.2.1-.2.2-.2.2-.3.1-.2.1-.3.2-.2.1-.3.1-.2.1h-.3l-.3.1h-.3l-.3.1h-1.8l-.3-.1H90l-.2-.1h-.3l-.3-.1-.2-.1-.3-.1-.2-.2-.2-.1-.3-.1-.2-.2-.2-.2-.2-.1-.1-.2-.2-.2-.2-.2-.1-.2-.2-.3-.1-.2-.1-.3-.1-.2-.1-.3-.1-.3v-.3L86 42v-.3l-.1-.3v-.7l.1-.4V40l.1-.4v-.3l.1-.3.1-.3.1-.3.1-.3.1-.2.1-.3.2-.2.1-.3.2-.2.2-.2.2-.2.2-.2.2-.2.2-.2.2-.1.2-.2.3-.1.2-.1.3-.2.3-.1.2-.1h.3l.3-.1.3-.1h.9"/><path fill="none" stroke="#FFF" stroke-width=".215" d="M92 34.7l.4.1h.9l.3.1.3.1.3.1.3.1.2.1.3.1.2.1.2.2.3.1.2.2.2.1.1.2.2.2.2.2.1.2.2.3.1.2.1.2.1.3.1.2.1.3.1.3v.2l.1.3v1.6l-.1.4v.3l-.1.4-.1.3-.1.3-.1.3-.1.3-.1.3-.1.2-.2.3-.1.2-.2.3-.2.2-.2.2-.2.2-.2.1-.2.2-.2.2-.3.1-.2.1-.3.2-.2.1-.3.1-.2.1h-.3l-.3.1h-.3l-.3.1h-1.8l-.3-.1H90l-.2-.1h-.3l-.3-.1-.2-.1-.3-.1-.2-.2-.2-.1-.3-.1-.2-.2-.2-.2-.2-.1-.1-.2-.2-.2-.2-.2-.1-.2-.2-.3-.1-.2-.1-.3-.1-.2-.1-.3-.1-.3v-.3L86 42v-.3l-.1-.3v-.7l.1-.4V40l.1-.4v-.3l.1-.3.1-.3.1-.3.1-.3.1-.2.1-.3.2-.2.1-.3.2-.2.2-.2.2-.2.2-.2.2-.2.2-.2.2-.1.2-.2.3-.1.2-.1.3-.2.3-.1.2-.1h.3l.3-.1.3-.1h.9l.3-.1"/><path fill="#FFF" d="M96.5 45.7h.8v.1H97v.7h-.2v-.7h-.3"/><path fill="none" stroke="#FFF" stroke-width=".215" d="M96.5 45.7h.8v.1H97v.7h-.2v-.7h-.3v-.1"/><path fill="#FFF" d="M97.4 45.7h.3l.3.6.3-.6h.3v.8h-.2v-.6l-.3.6h-.2l-.3-.6v.6h-.2"/><path fill="none" stroke="#FFF" stroke-width=".215" d="M97.4 45.7h.3l.3.6.3-.6h.3v.8h-.2v-.6l-.3.6h-.2l-.3-.6v.6h-.2v-.8"/><path fill="#EC1C2E" d="M89.7 40.2l-.1.4v1.1l.1.2v.3l.1.2.1.3.2.1.1.2.2.1.1.1.2.1.2.1h1l.2-.1h.2l.2-.2.2-.1.2-.1.2-.2.1-.2.2-.3.1-.2.1-.3.2-.3V41l.1-.4.1-.4v-1.4l-.1-.3-.1-.2v-.2l-.2-.2-.1-.2-.2-.1-.1-.1-.2-.1-.2-.1h-1.1l-.2.1-.3.1-.2.2-.2.1-.2.2-.2.2-.1.3-.1.2-.2.2-.1.3v.2l-.1.3-.1.2"/></svg>