<svg xmlns="http://www.w3.org/2000/svg" viewBox="0 0 125.4 78.4"><path fill-rule="evenodd" clip-rule="evenodd" fill="#FBB231" d="M77.8 61.7h1.1l1.2-.1 1.1-.2 1.1-.2 1.1-.2 1.1-.3 1-.4 1-.4 1-.4 1-.5 1-.6.9-.5.9-.7.8-.6.8-.8.8-.7.8-.8.7-.8.6-.9.7-.8.5-1 .6-.9.5-1 .4-1 .4-1 .4-1 .3-1.1.3-1.1.2-1.1.1-1.1.1-1.2V38l-.1-1.1-.1-1.2-.2-1.1-.3-1-.3-1.1-.4-1.1-.4-1-.4-1-.5-.9-.6-1-.5-.9-.7-.9-.6-.8-.7-.8-.8-.8-.8-.8-.8-.7-.8-.6-.9-.7-.9-.5-1-.6-1-.5-1-.4-1-.4-1-.4-1.1-.3-1.1-.2-1.1-.2-1.1-.2-1.2-.1h-2.3l-1.1.1-1.2.2-1.1.2-1.1.2-1 .3-1.1.4-1 .4-1 .4-.9.5-1 .6-.9.5-.9.7-.8.6-.8.7-.8.8-.8.8-.7.8-.6.8-.7.9-.5.9-.6 1-.5.9-.4 1-.4 1-.4 1.1-.3 1.1-.2 1-.2 1.1-.2 1.2-.1 1.1v2.3l.1 1.2.2 1.1.2 1.1.2 1.1.3 1.1.4 1 .4 1 .4 1 .5 1 .6.9.5 1 .7.8.6.9.7.8.8.8.8.7.8.8.8.6.9.7.9.5 1 .6.9.5 1 .4 1 .4 1.1.4 1 .3 1.1.2 1.1.2 1.2.2 1.1.1h1.2"/><path fill-rule="evenodd" clip-rule="evenodd" fill="#EC1C2E" d="M47.7 61.7h1.1l1.2-.1 1.1-.2 1.1-.2 1.1-.2 1-.3 1.1-.4 1-.4 1-.4 1-.5.9-.6.9-.5.9-.7.9-.6.8-.8.7-.7.8-.8.7-.8.7-.9.6-.8.6-1 .5-.9.5-1 .5-1 .4-1 .3-1 .3-1.1.3-1.1.2-1.1.1-1.1.1-1.2V38l-.1-1.1-.1-1.2-.2-1.1-.3-1-.3-1.1-.3-1.1-.4-1-.5-1-.5-.9-.5-1-.6-.9-.6-.9-.7-.8-.7-.8-.8-.8-.7-.8-.8-.7-.9-.6-.9-.7-.9-.5-.9-.6-1-.5-1-.4-1-.4-1.1-.4-1-.3-1.1-.2-1.1-.2-1.1-.2-1.2-.1h-2.3l-1.1.1-1.2.2-1.1.2-1.1.2-1 .3-1.1.4-1 .4-1 .4-1 .5-.9.6-.9.5-.9.7-.9.6-.8.7-.8.8-.7.8-.7.8-.7.8-.6.9-.6.9-.6 1-.5.9-.4 1-.4 1-.4 1.1-.3 1.1-.2 1-.2 1.1-.2 1.2-.1 1.1v2.3l.1 1.2.2 1.1.2 1.1.2 1.1.3 1.1.4 1 .4 1 .4 1 .5 1 .6.9.6 1 .6.8.7.9.7.8.7.8.8.7.8.8.9.6.9.7.9.5.9.6 1 .5 1 .4 1 .4 1.1.4 1 .3 1.1.2 1.1.2 1.2.2 1.1.1h1.2"/><path fill-rule="evenodd" clip-rule="evenodd" fill="#FBB231" d="M60.1 25.3H72v-1.2H61.1l-1 1.2M58.3 28H72v-1.2H59l-.7 1.2M57 30.8h15v-1.3H57.5l-.5 1.3m-1 2.7h16v-1.3H56.4l-.4 1.3m.6 13.1h15.5v-1.2H56.2l.4 1.2m1.1 2.7h14.4v-1.2h-15l.6 1.2m1.6 2.7h12.8v-1.2H58.6l.7 1.2m2.2 2.7h10.6v-1.2H60.5l1 1.2m-6-18.5H72V35H55.7l-.2 1.2m10.1 7.7h6.3v-1.2h-6.1l-.2 1.2m.5-2.7h5.8V40h-5.6l-.2 1.2m-11-1.2h1.6v1.2h-1.5l-.1-1.2"/><path fill-rule="evenodd" clip-rule="evenodd" fill="#FFF" d="M52 38.5h-.1l-.1-.1h-.6l-.1-.1h-.9l-.2.1h-.5l-.1.1h-.1l-.1.1-.1.1v.1H49v.5l.1.1.1.1.1.1.2.2.2.1h.2l.3.1.2.1.3.1.2.1.2.1.3.2.1.2.2.2.1.3.1.3v1.3l-.1.3-.2.3-.1.2-.2.2-.2.2-.2.2-.2.1-.3.2-.2.1h-.3l-.2.1h-.3l-.3.1h-1.8l-.2-.1h-.7l-.1-.1H46l-.1-.1h-.1l-.2-.1.4-1.6h.2l.2.1h.3l.1.1h.6l.2.1h1.3l.2-.1.1-.1.1-.1.1-.1.1-.1v-.3l.1-.2-.1-.2-.1-.1-.2-.1-.3-.2-.2-.1-.3-.1-.3-.1-.3-.1-.3-.2-.3-.2-.2-.2-.2-.3-.1-.4-.1-.4v-.8l.1-.2.1-.3V38l.2-.3.1-.2.2-.2.2-.1.2-.2.2-.1.3-.1.3-.1h.3l.4-.1h2.5l.1.1h.5v.1h.1l-.4 1.7"/><path fill="none" stroke="#FFF" stroke-width=".216" stroke-miterlimit="2.613" d="M52 38.5h-.1l-.1-.1h-.6l-.1-.1h-.9l-.2.1h-.5l-.1.1h-.1l-.1.1-.1.1v.1H49v.5l.1.1.1.1.1.1.2.2.2.1h.2l.3.1.2.1.3.1.2.1.2.1.3.2.1.2.2.2.1.3.1.3v1.3l-.1.3-.2.3-.1.2-.2.2-.2.2-.2.2-.2.1-.3.2-.2.1h-.3l-.2.1h-.3l-.3.1h-1.8l-.2-.1h-.7l-.1-.1H46l-.1-.1h-.1l-.2-.1.4-1.6h.2l.2.1h.3l.1.1h.6l.2.1h1.3l.2-.1.1-.1.1-.1.1-.1.1-.1v-.3l.1-.2-.1-.2-.1-.1-.2-.1-.3-.2-.2-.1-.3-.1-.3-.1-.3-.1-.3-.2-.3-.2-.2-.2-.2-.3-.1-.4-.1-.4v-.8l.1-.2.1-.3V38l.2-.3.1-.2.2-.2.2-.1.2-.2.2-.1.3-.1.3-.1h.3l.4-.1h2.5l.1.1h.5v.1h.1l-.4 1.7"/><path fill-rule="evenodd" clip-rule="evenodd" fill="#FFF" d="M53.8 34.9h2.1l-.3 1.8h1.3l-.3 1.7h-1.3l-.8 4.2v.2l.1.1v.1l.1.1h.2l.1.1h1l.1-.1h.1l-.3 1.4-.1.1h-.1v.1h-.3l-.1.1h-2l-.2-.1-.2-.1h-.2l-.1-.1-.1-.1-.1-.1V44l-.1-.1v-.5l.1-.2 1.4-8.3"/><path fill="none" stroke="#FFF" stroke-width=".216" stroke-miterlimit="2.613" d="M53.8 34.9h2.1l-.3 1.8h1.3l-.3 1.7h-1.3l-.8 4.2v.2l.1.1v.1l.1.1h.2l.1.1h1l.1-.1h.1l-.3 1.4-.1.1h-.1v.1h-.3l-.1.1h-2l-.2-.1-.2-.1h-.2l-.1-.1-.1-.1-.1-.1V44l-.1-.1v-.5l.1-.2 1.4-8.3"/><path fill="none" stroke="#FFF" stroke-width=".216" stroke-miterlimit="2.613" d="M58.6 41.3l-.1.1v.3l.1.2v.1l.1.1.1.2.1.1.1.1.1.1.1.2.1.1h.2l.1.1.2.1h.5l.2.1h1l.2-.1h.2l.2-.1h.2l.3-.1.2-.1.2-.1.2-.1-.3 1.8-.1.1h-.1l-.2.1h-.1l-.1.1h-.2l-.2.1h-2.6l-.4-.1-.4-.2-.3-.1-.4-.2-.3-.2-.3-.3-.2-.3-.2-.3-.2-.4-.2-.5v-.5l-.1-.5.1-.7v-.2l.1-.3v-.3l.1-.3.1-.3.1-.4.2-.3.2-.3.3-.3.3-.3.3-.3.4-.2.4-.2.5-.1.6-.1h1.2l.3.1h.3l.3.1.3.2.3.2.2.2.3.2.2.3.1.4.1.4.1.4v.6l-.1.5-.1.7v.4h-5.6l.4-1.5h3.3v-.7l-.1-.1v-.1l-.1-.1-.1-.1-.1-.1-.1-.1-.1-.1h-.1l-.1-.1h-.3l-.1-.1-.2.1H60l-.1.1h-.2l-.1.1-.1.1-.1.1-.1.1-.1.1-.1.1v.1l-.1.2-.1.1v.3l-.3 1.6"/><path fill-rule="evenodd" clip-rule="evenodd" fill="#FFF" d="M76.7 37.2l-.1-.1h-.1l-.1-.1h-.2l-.1-.1H76l-.1-.1h-.3l-.2-.1H75l-.2-.1h-.6l-.2.1h-.4l-.2.1-.2.1-.2.1-.3.1-.2.2-.2.2-.1.2-.2.3-.2.3-.2.4-.1.4-.1.5-.1.3v1l.1.3v.2l.1.2.1.2.2.2.1.2.2.2.2.1.3.1.2.1.3.1h.4l.1.1h.7l.2-.1h.2l.2-.1h.2l.2-.1.2-.1.1-.1.2-.2-.4 2.1-.1.1-.1.1h-.1l-.1.1h-.1l-.1.1h-.2l-.2.1h-2.3l-.3-.1-.4-.1-.3-.2-.4-.1-.3-.3-.3-.2-.3-.3-.2-.4-.2-.4-.2-.4-.2-.5-.1-.5v-1.1l.1-.6.1-.3V39l.1-.3.1-.3.1-.3.1-.2.1-.3.1-.2.1-.3.1-.2.1-.2.2-.2.1-.2.2-.2.1-.1.2-.2.2-.2.1-.1.2-.1.2-.1.2-.2.2-.1h.2l.2-.1.3-.1.2-.1h.3l.2-.1h.5l.3-.1h.5l.3.1h.7l.2.1h.2l.1.1h.2l.2.1h.1l.1.1h.2l.1.1-.3 2.1"/><path fill="none" stroke="#FFF" stroke-width=".216" stroke-miterlimit="2.613" d="M76.7 37.2l-.1-.1h-.1l-.1-.1h-.2l-.1-.1H76l-.1-.1h-.3l-.2-.1H75l-.2-.1h-.6l-.2.1h-.4l-.2.1-.2.1-.2.1-.3.1-.2.2-.2.2-.1.2-.2.3-.2.3-.2.4-.1.4-.1.5-.1.3v1l.1.3v.2l.1.2.1.2.2.2.1.2.2.2.2.1.3.1.2.1.3.1h.4l.1.1h.7l.2-.1h.2l.2-.1h.2l.2-.1.2-.1.1-.1.2-.2-.4 2.1-.1.1-.1.1h-.1l-.1.1h-.1l-.1.1h-.2l-.2.1h-2.3l-.3-.1-.4-.1-.3-.2-.4-.1-.3-.3-.3-.2-.3-.3-.2-.4-.2-.4-.2-.4-.2-.5-.1-.5v-1.1l.1-.6.1-.3V39l.1-.3.1-.3.1-.3.1-.2.1-.3.1-.2.1-.3.1-.2.1-.2.2-.2.1-.2.2-.2.1-.1.2-.2.2-.2.1-.1.2-.1.2-.1.2-.2.2-.1h.2l.2-.1.3-.1.2-.1h.3l.2-.1h.5l.3-.1h.5l.3.1h.7l.2.1h.2l.1.1h.2l.2.1h.1l.1.1h.2l.1.1-.3 2.1"/><path fill-rule="evenodd" clip-rule="evenodd" fill="#FFF" d="M95.3 44.8h-2.1l.2-.8v-.1l-.1.2-.2.1-.1.1-.1.1-.2.1-.1.1-.1.1-.2.1h-.1l-.2.1h-.4l-.2.1h-.3l-.4-.1-.3-.1-.4-.1-.3-.2-.2-.2-.3-.2-.2-.3-.2-.3-.1-.4-.1-.3-.1-.4-.1-.4v-1.2l.1-.3.1-.5.2-.4.1-.4.2-.4.2-.3.2-.3.3-.3.2-.2.3-.3.3-.1.3-.2.2-.1.3-.2h.3l.4-.1h.5l.2.1h.4l.2.1.1.1.2.1h.1l.1.1.1.1.1.1.1.1.1.1.1.1v.1l.1.1.5-3h2.1l-1.8 9.9"/><path fill="none" stroke="#FFF" stroke-width=".216" stroke-miterlimit="2.613" d="M95.3 44.8h-2.1l.2-.8v-.1l-.1.2-.2.1-.1.1-.1.1-.2.1-.1.1-.1.1-.2.1h-.1l-.2.1h-.4l-.2.1h-.3l-.4-.1-.3-.1-.4-.1-.3-.2-.2-.2-.3-.2-.2-.3-.2-.3-.1-.4-.1-.3-.1-.4-.1-.4v-1.2l.1-.3.1-.5.2-.4.1-.4.2-.4.2-.3.2-.3.3-.3.2-.2.3-.3.3-.1.3-.2.2-.1.3-.2h.3l.4-.1h.5l.2.1h.4l.2.1.1.1.2.1h.1l.1.1.1.1.1.1.1.1.1.1.1.1v.1l.1.1.5-3h2.1l-1.8 9.9"/><path fill-rule="evenodd" clip-rule="evenodd" fill="#FBB231" d="M91.9 43h.4l.2-.1.2-.1.1-.1.2-.1.1-.1.2-.2.1-.1.1-.2.1-.1.1-.2v-.2l.1-.2.1-.2v-.4l.1-.3v-.2l-.1-.2v-.4l-.1-.1v-.2l-.1-.2-.1-.1-.1-.1-.1-.1-.1-.1-.2-.1H93l-.2-.1-.2.1h-.2l-.1.1h-.2l-.2.1-.1.2-.1.1-.2.1-.1.2-.1.2-.1.1-.1.2-.1.2v.3l-.1.2v.2l-.1.3.1.4v.4l.1.3.2.3.2.3.2.2h.3"/><path fill-rule="evenodd" clip-rule="evenodd" fill="#FFF" d="M45.3 43.2l-.3 1.6h-1.9v-.3l.1-.2v-.4l-.1.2-.1.1-.1.1-.2.1-.2.1-.2.1-.2.1-.2.1h-.2l-.2.1h-.2l-.3.1h-.6l-.2-.1h-.3l-.2-.1-.2-.1-.2-.1-.2-.2-.2-.1-.1-.1-.1-.2-.1-.1v-.2l-.1-.2-.1-.1v-1.3l.1-.3.1-.2.1-.3.2-.2.1-.2.2-.2.2-.2.2-.1.2-.2.3-.1.2-.1.3-.1.2-.1h.7l.1-.1h.9l.1-.1h.2l.2.1h.7v-.1l.1-.1V39l-.1-.1-.1-.2-.1-.1-.1-.1h-.2l-.2-.1h-1.8l-.3.1h-.4l-.2.1h-.2l-.2.1h-.1l-.1.1h-.1l.5-1.8.2-.1h.2l.2-.1h.1l.2-.1h.6l.2-.1h1.7l.3.1h.4l.3.1.2.1.2.1.2.1.3.2.2.1.1.2.2.2.1.3.1.2v.9l-.8 4"/><path fill="none" stroke="#FFF" stroke-width=".216" stroke-miterlimit="2.613" d="M45.3 43.2l-.3 1.6h-1.9v-.3l.1-.2v-.4l-.1.2-.1.1-.1.1-.2.1-.2.1-.2.1-.2.1-.2.1h-.2l-.2.1h-.2l-.3.1h-.6l-.2-.1h-.3l-.2-.1-.2-.1-.2-.1-.2-.2-.2-.1-.1-.1-.1-.2-.1-.1v-.2l-.1-.2-.1-.1v-1.3l.1-.3.1-.2.1-.3.2-.2.1-.2.2-.2.2-.2.2-.1.2-.2.3-.1.2-.1.3-.1.2-.1h.7l.1-.1h.9l.1-.1h.2l.2.1h.7v-.1l.1-.1V39l-.1-.1-.1-.2-.1-.1-.1-.1h-.2l-.2-.1h-1.8l-.3.1h-.4l-.2.1h-.2l-.2.1h-.1l-.1.1h-.1l.5-1.8.2-.1h.2l.2-.1h.1l.2-.1h.6l.2-.1h1.7l.3.1h.4l.3.1.2.1.2.1.2.1.3.2.2.1.1.2.2.2.1.3.1.2v.9l-.8 4"/><path fill-rule="evenodd" clip-rule="evenodd" fill="#EC1C2E" d="M43.5 41.2v-.1h-.3l-.1-.1h-.2l-.1.1h-.6l-.1.1h-.2l-.1.1h-.2l-.1.1h-.1l-.1.1-.1.1-.1.1H41l-.1.1v.1l-.1.1v.2l-.1.1v.2l.1.2.1.2.1.1.1.1h.1l.1.1h.4l.2-.1h.3l.2-.1.1-.1h.2l.1-.1.1-.1.1-.1v-.1l.1-.1h.1v-.2l.1-.1v-.2l.1-.3v-.2l.1-.2"/><path fill-rule="evenodd" clip-rule="evenodd" fill="#FFF" d="M29.3 44.8h-2l1.7-9.9h3.6l.3 5.9 2.5-5.9h3.7l-1.7 9.9h-2.1l1.3-7.4h-.1l-3 7.4h-2.4v-1.1l-.1-1.2-.1-1.3-.1-1.4v-1.2l-.1-.8v-.4h-.1l-1.3 7.4"/><path fill="none" stroke="#FFF" stroke-width=".216" stroke-miterlimit="2.613" d="M29.3 44.8h-2l1.7-9.9h3.6l.3 5.9 2.5-5.9h3.7l-1.7 9.9h-2.1l1.3-7.4h-.1l-3 7.4h-2.4v-1.1l-.1-1.2-.1-1.3-.1-1.4v-1.2l-.1-.8v-.4h-.1l-1.3 7.4"/><path fill-rule="evenodd" clip-rule="evenodd" fill="#FFF" d="M83 43.2l-.3 1.6h-1.9V44l-.1.1-.1.1-.2.1-.1.1-.2.1-.2.1-.1.1-.2.1h-.2l-.3.1h-.2l-.2.1h-.6l-.2-.1h-.3l-.2-.1-.2-.1-.2-.1-.2-.2-.2-.1-.1-.1-.1-.2-.1-.1v-.2l-.1-.2v-.1l-.1-.2v-.8l.1-.3v-.3l.1-.2.1-.3.2-.2.1-.2.2-.2.2-.2.2-.1.2-.2.3-.1.2-.1.3-.1.2-.1h.6l.2-.1h.8l.1-.1h.3l.2.1h.7v-.2l.1-.2v-.1l-.1-.2v-.1l-.1-.2-.1-.1-.2-.1h-.1l-.2-.1h-1.8l-.3.1h-.4l-.2.1h-.2l-.2.1h-.1l-.1.1h-.1l.5-1.8.2-.1h.2l.2-.1h.1l.2-.1h.6l.2-.1h1.7l.2.1h.5l.2.1.3.1.2.1.2.1.2.2.2.1.2.2.2.2.1.3v.2l.1.3v.6l-.8 4"/><path fill-rule="evenodd" clip-rule="evenodd" fill="#FFF" d="M82.7 44.9l.3-1.7h-.1l-.3 1.6h.1v.1"/><path fill-rule="evenodd" clip-rule="evenodd" fill="#FFF" d="M80.7 44.8l.1.1h1.9v-.1h-2v.1h.1l-.1-.1"/><path fill-rule="evenodd" clip-rule="evenodd" fill="#FFF" d="M80.8 44v-.1l-.1.2v.7h.1v-.9.1"/><path fill-rule="evenodd" clip-rule="evenodd" fill="#FFF" d="M77.9 45h1l.3-.1h.2l.2-.1.2-.1.2-.1h.2l.1-.2.2-.1.1-.1.1-.1.1-.1v-.1l-.1.2-.2.1-.1.1-.1.1-.2.1-.2.1h-.2l-.1.1-.2.1h-.3l-.2.1h-1v.1M76 42.7v.1l.1.2v.4l.1.1v.2l.1.2.1.1.1.2.1.1.2.2.1.1.2.1.3.1.2.1.3.1v-.1l-.3-.1-.2-.1-.2-.1-.2-.1-.2-.1-.1-.1-.1-.2-.1-.1-.1-.2-.1-.1-.1-.2V43l-.1-.2v-.1H76"/><path fill-rule="evenodd" clip-rule="evenodd" fill="#FFF" d="M78.8 39.8h-.3l-.3.1-.2.1-.3.1-.2.1-.2.1-.2.2-.2.2-.2.2-.2.2-.1.2-.1.3-.1.2-.1.3v.3l-.1.3h.1l.1-.3v-.3l.1-.3.1-.2.1-.3.1-.2.2-.2.1-.2.2-.1.2-.2.3-.1.2-.2.2-.1h.3l.2-.1.3-.1m1.5-.2h-.6l-.2.1h-.7v.1h.7l.2-.1h.6v-.1m1.1.1v-.1h-1.1v.1h1.1m0-.5v.5l.1-.1v-.4h-.1"/><path fill-rule="evenodd" clip-rule="evenodd" fill="#FFF" d="M80.5 38.4l.2.1h.2l.1.1.1.1.1.1.1.1.1.1v.2h.1V39l-.1-.1-.1-.2-.1-.1-.1-.1-.2-.1h-.2l-.2-.1v.1m-3.2.4v.1l.1-.1h.1l.1-.1h.2l.2-.1h.4l.2-.1h.5l.3-.1h1.1l-.2-.1h-.7l-.2.1h-.8l-.2.1H78l-.2.1h-.2l-.1.1h-.1l-.1.1h.1-.1"/><path fill-rule="evenodd" clip-rule="evenodd" fill="#FFF" d="M77.8 36.9v.1l-.5 1.8h.1l.5-1.8-.1-.1v.1-.1"/><path fill-rule="evenodd" clip-rule="evenodd" fill="#FFF" d="M81.2 36.6h-2.1l-.2.1h-.4l-.1.1h-.2l-.2.1h-.2l.1.1h.1l.2-.1.2-.1h.3l.2-.1h2.3v-.1m2.6 2.6v-.9l-.1-.3-.1-.2-.2-.2-.1-.2-.2-.2-.3-.1-.2-.1-.2-.1-.3-.1-.2-.1-.2-.1h-.5v.1h.4l.3.1.2.1h.2l.3.2.2.1.2.1.2.2.2.2.1.2.1.2.1.2.1.3v.3l-.1.2.1.1"/><path fill-rule="evenodd" clip-rule="evenodd" fill="#FFF" d="M83 43.2l.8-4-.1-.1-.8 4.1h.1"/><path fill-rule="evenodd" clip-rule="evenodd" fill="#FBB231" d="M81.1 41.2v-.1H81l-.1-.1h-.4l-.1.1h-.5l-.1.1h-.3l-.1.1h-.1l-.1.1h-.1l-.1.1h-.1l-.1.1-.1.1-.1.1v.1l-.1.1v.9l.1.1.2.1h.1l.1.1h.4l.2-.1h.2l.2-.1h.1l.2-.1.1-.1.1-.1h.1l.1-.1.1-.1.1-.1v-.1l.1-.1v-.4l.1-.2v-.4"/><path fill-rule="evenodd" clip-rule="evenodd" fill="#FFF" d="M96.8 43.8v-.4l.1-.2.2-.1.1-.1.2-.1.2-.1h.4l.2.1.2.1.2.1.1.1.1.2.1.2v.2h-.2v-.1l-.1-.2-.1-.1-.1-.2-.1-.1-.1-.1h-.7l-.2.1-.1.1-.1.2-.1.1v.3h-.2"/><path fill-rule="evenodd" clip-rule="evenodd" fill="#FFF" d="M97.5 43.8v-.4h.7v.4h-.3.1l.1-.1v-.2h-.5v.3h-.1m-.7 0v.5l.1.2.2.1.1.1.2.1.2.1h.4l.2-.1.2-.1.2-.1.1-.1.1-.2.1-.2v-.3h-.2v.2l-.1.2-.1.1-.1.2-.1.1-.1.1h-.7l-.2-.1-.1-.1-.1-.2-.1-.1v-.4h-.2"/><path fill-rule="evenodd" clip-rule="evenodd" fill="#FFF" d="M97.5 43.8v.5h.1v-.4h.2l.3.4h.1l-.2-.4h.1l.1-.1h-.7"/><path fill="none" stroke="#FFF" stroke-width=".216" stroke-miterlimit="2.613" d="M96.8 43.9v-.2l.1-.2.1-.2.1-.2.2-.1.2-.1.2-.1h.4l.2.1.2.1.2.1.1.2.1.2.1.2v.4l-.1.2-.1.2-.1.2-.2.1-.2.1h-.7l-.2-.1-.2-.1-.2-.1-.1-.2-.1-.2-.1-.2.1-.1m.8.4h-.2v-.9h.8v.4H98l.2.4H98l-.2-.4h-.2v.5m.2-.5h.1v-.1h-.2v.3h.1m0 .7h.2l.2-.1.1-.1.1-.1.1-.1.1-.1v-.8l-.1-.2-.1-.1-.1-.1h-.8l-.1.1-.1.1-.1.1-.2.2v.8l.1.1.1.1.1.1.1.1.2.1.2-.1"/><path fill-rule="evenodd" clip-rule="evenodd" fill="#FFF" d="M83.5 44.8h2.2l.7-4.3.1-.1v-.2l.1-.2v-.1l.1-.2.1-.2.1-.1.1-.2.2-.1.1-.1.2-.1.2-.1.2-.1.2-.1h.8l.3-2-.2.1h-.4l-.2.1h-.1l-.2.1-.1.1-.2.1-.1.1-.1.1-.2.1-.1.1-.1.2-.1.1-.1.1-.1.2.2-1.4H85l-1.5 8.1"/><path fill="none" stroke="#FFF" stroke-width=".216" stroke-miterlimit="2.613" d="M83.5 44.8h2.2l.7-4.3.1-.1v-.2l.1-.2v-.1l.1-.2.1-.2.1-.1.1-.2.2-.1.1-.1.2-.1.2-.1.2-.1.2-.1h.8l.3-2-.2.1h-.4l-.2.1h-.1l-.2.1-.1.1-.2.1-.1.1-.1.1-.2.1-.1.1-.1.2-.1.1-.1.1-.1.2.2-1.4H85l-1.5 8.1"/><path fill-rule="evenodd" clip-rule="evenodd" fill="#FFF" d="M63.4 44.8h2.2l.7-4.3.1-.1V40l.1-.1.1-.2v-.1l.1-.1.1-.2.2-.1.1-.1.2-.1.1-.1h.3l.2-.1h.3l.2-.1h.1v.1h.2v-.3l.1-.1v-.2l.1-.3v-.2l.1-.2.1-.1.1-.2v-.1l.1-.1.1-.2.1-.1h-.2l-.1-.1h-.1l-.2.1h-.4l-.2.1h-.2l-.1.1-.2.1-.1.1-.1.1-.2.1-.1.1-.1.1-.1.1-.1.2-.1.1-.1.2.2-1.4h-2.1l-1.5 8.1"/><path fill="none" stroke="#FFF" stroke-width=".216" stroke-miterlimit="2.613" d="M63.4 44.8h2.2l.7-4.3.1-.1V40l.1-.1.1-.2v-.1l.1-.1.1-.2.2-.1.1-.1.2-.1.1-.1h.3l.2-.1h.3l.2-.1h.1v.1h.2v-.3l.1-.1v-.2l.1-.3v-.2l.1-.2.1-.1.1-.2v-.1l.1-.1.1-.2.1-.1h-.2l-.1-.1h-.1l-.2.1h-.4l-.2.1h-.2l-.1.1-.2.1-.1.1-.1.1-.2.1-.1.1-.1.1-.1.1-.1.2-.1.1-.1.2.2-1.4h-2.1l-1.5 8.1"/><path fill-rule="evenodd" clip-rule="evenodd" fill="#FBB231" d="M96.8 52.8v-.2l.1-.2.2-.1.1-.1.2-.1.2-.1h.4l.2.1.2.1.2.1.1.1.1.2.1.2h-.2l-.1-.1-.1-.2-.1-.1-.1-.1-.1-.1H98l-.2-.1-.1.1h-.2l-.2.1-.1.1-.1.1-.1.2v.1h-.2"/><path fill-rule="evenodd" clip-rule="evenodd" fill="#FBB231" d="M97.5 52.8v-.2h.7v.2h-.1v-.1h-.5v.1h-.1m-.7.2v-.2h.2v.2h-.2m.7 0v-.2h.1v.2h.4v-.1h.1v-.1h.1v.2h-.7m1.2 0v-.2h.2v.2h-.2m-1.9 0v.4l.1.2.2.2.1.1.2.1.2.1h.4l.2-.1.2-.1.2-.1.1-.2.1-.2.1-.2V53h-.2v.2l-.1.2-.1.1-.1.1-.1.2h-.1l-.2.1h-.3l-.2-.1h-.2l-.1-.2-.1-.1-.1-.1V53h-.2"/><path fill-rule="evenodd" clip-rule="evenodd" fill="#FBB231" d="M97.5 53v.4h.1v-.3h.2l.3.3h.1l-.2-.3.1-.1h.1-.7"/><path fill-rule="evenodd" clip-rule="evenodd" fill="#FFF" d="M63.7 39.1l-.1-.5-.1-.4-.2-.3-.2-.3-.2-.3-.3-.2-.2-.1-.3-.1-.3-.1-.3-.1-.3-.1H60l-.5.1-.5.1-.5.2-.4.2-.3.3-.3.3-.2.3-.3.3-.2.3-.1.3-.1.3-.1.3v2.1l.1.5.1.4.2.4.2.3.3.3.3.3.3.2.3.2.4.1.4.1.4.1.4.1h3l.1-.1.1-.1.3-1.9-.4.1-.2.1-.2.1-.3.1h-2.7l-.2-.1-.1-.1-.1-.1-.1-.1-.1-.1-.1-.1-.1-.1-.1-.1-.1-.2-.1-.1v-.4h4.9V41l.1-.6.1-.6.1-.7zm-2.1.7h-2.8v-.5l.1-.2.1-.1.1-.1.1-.1.1-.1.1-.1.1-.1.1-.1.1-.1.1-.1h.8l.1.1.1.1.1.1.1.1.1.1.1.1.1.1.1.1v.6l.2.2z"/></svg>