<svg xmlns="http://www.w3.org/2000/svg" height="14" width="49"><style id="style3">.st1{fill-rule:evenodd;clip-rule:evenodd;fill:#4db45f}</style><linearGradient y2="3" x2="48.5" y1="3" x1="34.174" gradientUnits="userSpaceOnUse" id="SVGID_1_"><stop id="stop6" offset="0" stop-color="#00B4E6"/><stop id="stop8" offset="1" stop-color="#088CCB"/></linearGradient><path id="path10" d="M43.5 0h-9.3c.5 3.1 3.5 6 6.8 6h7.4c.1-.3.1-.7.1-1 0-2.8-2.2-5-5-5z" fill-rule="evenodd" clip-rule="evenodd" fill="url(#SVGID_1_)"/><path id="path12" d="M35 6.5V14h4.5v-4h4c2.2 0 4.1-1.5 4.7-3.5z" class="st1" clip-rule="evenodd" fill="#4db45f" fill-rule="evenodd"/><path id="path14" d="M19 0v14h4s1 0 1.5-1L28 6h.5v8H33V0h-4s-1 .1-1.5 1L24 8h-.5V0H19z" class="st1"/><path id="path16" d="M0 14V0h4.5s1.3 0 2 2c1.8 5.3 2 6 2 6s.4-1.3 2-6c.7-2 2-2 2-2H17v14h-4.5V6.5H12L9.5 14h-2L5 6.5h-.5V14H0z" class="st1"/></svg>