<svg xmlns="http://www.w3.org/2000/svg" viewBox="0 0 125.4 78.4"><path fill="#FFF" d="M25.1 27.3zm21.7 10.8l.5-1.6-1.6.1c-.1 0-1.1 0-2.1-.7h.2c1 0 1.9-.6 2.3-1.4l.7-1.5c-.9 0-1.7-.1-1.7-.1s-.6-.1-1.4-.8c-.5-.5-1.2-.8-1.9-.8-.3 0-.6.1-.8.1 0-.1.1-.3.1-.4.2-1.4-.7-2.5-.7-2.5L39.2 27l-.7 1.8s-.2.4-.5.6c-.1-.5-.4-1.1-.9-1.7-1-1-2.2-1.2-2.9-1.2h-.6l-1.5.3c.1-.3.3-.9.6-1.4l.8-1.3-2 .2L31 23l-1.2.6-1.2-1.1-1.2 1.1-1.2-.6-.6 1.4-2-.2.8 1.3c.3.5.5 1.1.6 1.4l-1.4-.3H23c-.6 0-1.9.2-2.9 1.2-.5.6-.8 1.1-.9 1.7-.3-.2-.5-.6-.5-.6l-.8-1.8-1.2 1.5c-.2.2-.9 1.2-.7 2.5 0 .1.1.3.1.4-.2-.1-.5-.1-.8-.1-.7 0-1.3.3-1.9.8-.7.7-1.3.8-1.3.8s-.7.1-1.7.1l.7 1.5c.4.8 1.3 1.4 2.3 1.4h.2c-1 .7-1.9.7-2.1.7l-1.6-.1.5 1.6c.2.8 1.1 2.1 2.7 2.3-.2.7-.6 1.5-1.4 1.9l-1.2.5.7 1.2c.4.6 1.3 1.4 2.5 1.4.3 0 .5 0 .8-.1.1.3.1.6.2.9.4 1.1.1 1.9 0 1.9l-.6 1.3 1.3.4s.4.1.9.1c.2 0 .5 0 .7-.1.2 0 .3-.1.5-.1l.6.9c.9.9 2.1 1.3 3.6 1.3h1.1l-2.3.9 1.7.8c.6.3 1.4.7 2.1.9l-.1.4.6.3c.1 0 1.2.5 3.1.6h1.4c1.9-.1 3-.6 3.1-.6l.6-.3-.2-.6c.8-.3 1.6-.7 2.2-1l1.7-.8-2.3-.9h1.1c1.5 0 2.8-.4 3.6-1.3.2-.3.5-.5.6-.8.1.1.3.1.5.1s.4.1.7.1c.5 0 .9-.1.9-.1l1.3-.4-.5-1.3s-.3-.8 0-1.9c.1-.3.2-.6.2-.9.3.1.5.1.8.1 1.6 0 2.4-1.1 2.5-1.4l.7-1.1-1.2-.5c-.8-.4-1.2-1.2-1.4-1.9 1.5-.1 2.4-1.5 2.6-2.3"/><path fill="#FFF" d="M28.6 27.3c-1.3 0-2.3.4-2.5.9l2.5 1 2.5-1c-.2-.5-1.2-.9-2.5-.9m.1 25.7c-.8 0-1.9-.2-2.4-.3l-.6 1.7c.4.1 1.8.4 3 .4s2.6-.3 3-.4l-.7-1.7c-.5.2-1.6.3-2.3.3m4.7-1.6c-.5.3-1.5.7-2.1.8l.5 1.4c.9-.3 1.7-.6 2.3-.9l-1.1-.3.4-1zm-9.5 0l.3 1-1.1.3c.6.3 1.4.6 2.3.9l.5-1.4-2-.8m4.7-25.8c1 0 1.9.2 2.7.6.1-.2.2-.5.3-.8H31l-.1-.3-.4-.8-.7.4-.2.3-.2-.2-.7-.7-.7.7-.3.2-.3-.1-.7-.4-.4.8-.1.3h-.6c.1.3.2.6.3.8.8-.5 1.8-.8 2.7-.8m14.9 9.1c.1 0 .3.1.4.1.6 0 1.1-.4 1.3-.8 0 0-1-.1-2.1-1.2-.3-.4-.7-.5-1-.5-.5 0-.9.3-.9.3 1.3.7 1.5 1.8 2.3 2.1m-30.1.1c.1 0 .3 0 .4-.1.7-.3 1-1.4 2.3-2.1 0 0-.4-.3-.9-.3-.3 0-.7.1-1 .5-1.1 1.1-2.1 1.2-2.1 1.2.2.4.8.8 1.3.8"/><path fill="#FFF" d="M43.1 42.7c-1-.5-1.7-1.8-1.8-2.3-.2 2.6-1.5 4.5-3 6.2-.8.9-1.1 1.8-1.1 1.8s.2-1 .8-1.8c1.4-1.7 2.7-3.8 2.8-6.2.1-1.7-.4-3.1-1-4.2.4 1.2.3 2.6-1 4 0 0 2.6-3.1-1-6.2-1.4-1.2-3-1.9-3.8-2.5 2.9 1 4.3-.1 4.3-.1-.9.8-2.1.8-2.9.7l.6.3c2.5 1.3 4.7 3.5 5.1 6.6.7 3 2 3.7 2 3.7m.7-3.5c.1 0 .1 0 0 0 1.4 0 1.9-1.5 1.9-1.5-.3 0-2.3-.1-3.7-1.9-.9-1.2-1.7-2.3-3.3-2.7h-.2v-.2c0-.2.1-.5.5-.7 2.1-1.4.7-3.2.7-3.2s-.6 1.4-2 1.4h-.8s.4-1.1-.5-2c-.7-.7-1.6-.9-2.1-.9h-.4c.5.6.8 1.6.3 2.3-.5.5-1.6.6-1.6 1.4 0 .3.3.7.9 1.1 1.7 1.1 3.4 2.5 4.1 4.4.9 2.4-.1 4-1.5 4.9 0 0 .4.4 1.1.5h.4c1.4 0 2.1-.6 2.1-.6s-.1.9-.8 1.7c-.7.8-1.5 1.2-2.8 1.2 0 0 0 .6.5 1.1.4.3 1.2.4 1.2.4s-1.6.3-1.8 2.7c-.1 1.3-.4 1.7-.4 1.7 3.7 0 3.6-3.2 3.6-3.2s.3.9 1.3 1.2h.4c.3 0 .6-.1.6-.1s-.5-1.2 0-2.8c.4-1.3.4-2.3.4-2.3s.5.8 1.8.8c1 0 1.5-.8 1.5-.8-2.5-1-2.2-4.4-2.2-4.4s.2.5.8.5m-24.9 7.4c-1.5-1.8-2.8-3.6-3-6.2-.2.5-.8 1.8-1.8 2.3 0 0 1.3-.8 1.8-3.8.4-3 2.6-5.2 5.1-6.6l.6-.3c-.7.1-2 .1-2.9-.7 0 0 1.4 1 4.3.1-.8.5-2.4 1.3-3.8 2.5-3.6 3.2-1 6.2-1 6.2-1.3-1.3-1.3-2.8-1-4-.7 1.1-1.1 2.5-1 4.2.1 2.4 1.4 4.5 2.8 6.2.7.8.8 1.8.8 1.8s-.1-.8-.9-1.7m.6-.5s.9-.1 1.2-.4c.6-.5.5-1.1.5-1.1-1.3 0-2.2-.5-2.8-1.2-.7-.8-.8-1.7-.8-1.7s.7.6 2.1.6h.4c.6-.1 1.1-.5 1.1-.5-1.4-.9-2.4-2.5-1.5-4.9.7-1.9 2.4-3.4 4.1-4.4.6-.4.9-.8.9-1.1 0-.8-1.1-.8-1.6-1.4-.5-.6-.2-1.6.3-2.3H23c-.5 0-1.3.1-2 .9-.9 1-.5 2-.5 2h-.8c-1.4 0-2-1.4-2-1.4s-1.4 1.8.7 3.2c.4.2.5.5.5.7v.2h-.2c-1.5.4-2.3 1.5-3.3 2.7-1.4 1.8-3.5 1.9-3.7 1.9 0 0 .5 1.5 1.8 1.5h.1c.6 0 1-.3 1-.3s.2 3.3-2.2 4.4c0 0 .5.8 1.5.8 1.2 0 1.8-.8 1.8-.8s-.1 1 .4 2.3c.5 1.6 0 2.8 0 2.8s.3.1.6.1h.4c1-.2 1.3-1.2 1.3-1.2s-.1 3.2 3.6 3.2c0 0-.3-.4-.4-1.7-.4-2.6-2.1-2.9-2.1-2.9m8.3-11.9h1.8v.6c-.2-.3-.6-.2-.6-.2v.9s0 .4.2.6h-.8c.2-.2.2-.6.2-.6v-.9s-.4-.1-.6.2v-.6h-.2zm-1.9.1l.2.2v.1l.2.2v.1c.1.1.1.2.2.3.5.9 1.4 1.5 2.2 1.5.8 0 1.6-.6 2.2-1.5.1-.1.1-.2.2-.3.1-.1.1-.2.2-.2l.2-.2c.3-.3.6-.5 1-.6l-.2-.1-.8-.4-.8-.4-2.1 1.1-2.1-1.1-.8.4-.7.2-.2.1c.4.1.8.3 1.1.6-.1 0 0 0 0 0"/><path fill="#FFF" d="M28 30.4v.6h-.1s-.2 0-.4-.3c-.5-.4-.6-.7-.6-.7l1.1.4zm.5 2.7v-3.5l-2.3-.8.6 3.4 1.7.9zm.8-2.7l1-.4s0 .3-.5.7c-.3.2-.4.3-.4.3h-.1v-.6zm1.2 1.8l.6-3.4-2.3.8v3.5l1.7-.9zm-5.2 9.1c.2.1.5.1.6.1v-.2c0-.2.1-.4.1-.6l-.3-.3c-.1-.2-.2-.3-.4-.3s-.5.1-.6.2c0 .5.3 1 .6 1.1m4.9-1.9c-.4.5-1.2 1.2-1.3 1.3h-2.6c0 .3 0 .5-.1.6v.1l3.1.6c.3-.2 1.2-.9 1.5-1.1-.2-.4-.3-.8-.2-1.1-.1-.2-.3-.3-.4-.4"/><path fill="#FFF" d="M30.6 36.3c-.6.6-1.2.8-1.7.9H28c0 .1-.1.4 0 .7.1.2.3.4.6.5h.1v.1s0 .8.8 1c.1-.1.3-.3.3-.4-.2-.4-.1-.8.2-1 0 0-.1 1 .7 1.4l.1.1v.1s-.3 1 .7 1.4l.2.1-.1.2s-.4.9.5 1.4H34v-1.5c-.7-.1-1-.6-1-1-.3-.1-.6-.2-.7-.4-.4-.5-.1-1-.1-1s0 .5.3.8c.2.2.3.3.6.3h.1v.1s.1.7.7.8v-3.1c0-.5.1-1 .3-1.4h-3.6v-.1zm-5.2 1.4v2h.2l.6-1.9-.3-.6-.5.5m1.2 7.4c-.1 0-.1-.1-.1-.1 0-.1.1-.1.1-.1.1 0 .1.1.1.1s0 .1-.1.1m4.9 1.7c.4.1.5 1.3 1.1 1.5h.2c.2 0 .3-.1.4-.2 0 0-.3-.5-.5-.8-.3-.4-.5-.9-1.1-.9-.2 0-.3.1-.3.1-.2-.1-.4-.2-.6-.2-.4 0-.6.2-.8.2l-1.3-.1c-.2 0-.4-.2-.4-.3V46c0-1-.8-1.5-1.1-1.5v-.3l-.3.3-1-.5.6.8-.5.6c-.1.1-.1.2 0 .2l.2.2.3-.2h.4c.1 0 .2 0 .2-.1 0 .4-.4 1-.2 1.6l.2.4-1.1-.2-.5.9c-.2.3-.2.6 0 .8l.2.2s.3-.3.3-.5l-.1-.1c-.1-.1-.1-.2 0-.2l.3-.5 1.3.3.1-.1c.1-.1.2-.2.4-.2h.2c.2 0 .6.1 1 .1s.9-.1 1.1-.3c.5.7 1.4.8 1.4 1.2l-.3 1.1h.5l.2-1.2c0-.1.1-.3.1-.3-.1-.1-.3-.3-.4-.5-.2-.3-.1-.5-.2-.9-.1-.2-.1-.3 0-.3"/><path fill="#FFF" d="M24.8 48s.4-.2.5-.3l-.1-.1v-.3l.5-.3.8.2s-.1-.2-.1-.4l-.7-.2-.7.3c-.3.2-.3.6-.2.8v.3zm5.6 2h.5l.4-1.2c-.2-.1-.7-.3-.9-.5.1.2.4.4.4.5l-.4 1.2z"/><path fill="#FFE600" d="M34.2 43H23.1v4.2c0 1.7 1.2 2.8 3.1 2.8 1.5 0 1.9.1 2.5.6.4-.4.7-.5 1.4-.6v-.1l.3-1.1-.6-.7c-.2.1-.4.1-.7.1-.3 0-.7 0-1.1-.1h-.2l-.1.1-.1.2-.2-.1-1.1-.3-.1.2.1.1-.1.2c-.1.2-.3.5-.4.6l-.3.3-.2-.3-.2-.2c-.2-.2-.2-.5-.1-.9l-.3.1-.1-.3-.1-.2c-.2-.4-.1-.9.3-1.2l.9-.5.8.2c0-.1 0-.4.1-.4l-.6.4-.5-.3s-.2-.2 0-.3l.4-.7-1.1-1.4 1.7.7.1-.1.2-.3.3.2c.1.1.1.2.1.2.5.2 1.3.7 1.4 1.6l-.3.1.1.1 1.2.1h.1c.2-.1.4-.1.6-.1.2 0 .4.1.6.1.1 0 .2 0 .3-.1h.1c.7 0 1 .5 1.2.9 0 .1.1.1.1.2.2.3.5.8.5.8l.1.2-.2.2c-.1.1-.3.3-.6.3h-.2c-.1 0-.1 0-.2-.1v.2l-.2 1.1c1.3-.3 2.1-1.3 2.1-2.7l.3-4zm-11.1-.3h8.6c-.4-.4-.4-1-.3-1.4-.1-.1-.2-.1-.3-.2-.3.2-1.4 1-1.6 1.2h-.1l-3.4-.6h-.4c0 .2-.2.3-.3.3h-.1c-.1 0-.2-.1-.2-.1-.1-.1-.1-.2-.1-.2v-.1c-.3-.2-.7-.8-.5-1.4v-.1s.1 0 .2-.1h-.2c-.1 0-.2-.1-.1-.2 0-.1.1-.2.2-.1l.6.1.1-2.1.9-.9.5 1.1-.6 2 .5.1c.1 0 .2.1.1.2 0 .1-.1.1-.2.1l-.4-.2c0 .1.1.2.2.2h2.6l.7-.7c-.6-.2-.9-.8-.9-1.2-.4-.2-.6-.4-.7-.7-.2-.4-.1-.7-.1-.9-.3-.1-.7-.4-1.1-.7h-3.9c.2.4.3.9.3 1.4v5.2z"/><path fill="#1D1D1B" d="M26.6 44.8c-.1 0-.1 0-.1.1s0 .1.1.1.1 0 .1-.1c0 0 0-.1-.1-.1m5.2 8.8l-.5-1.4c.6-.2 1.6-.6 2.1-.8l-.3 1 1 .3c-.6.3-1.4.6-2.3.9m-3.2 1.2c-1.2 0-2.6-.3-3-.4l.6-1.7c.5.2 1.6.3 2.4.3.8 0 1.9-.2 2.4-.3l.6 1.7c-.4.2-1.7.4-3 .4m-5.5-2.1l1.1-.3-.3-1c.5.3 1.5.7 2.1.8l-.5 1.4c-.9-.3-1.7-.6-2.4-.9m11.1-.3l-.6-.2.2-.7.2-.7s-1.1.6-2.7 1.1c-.6.1-.9.1-.9.1v.5s-.9.1-1.7.1c-.9 0-1.7-.1-1.7-.1V52s-.3-.1-.8-.2c-1.6-.5-2.7-1.1-2.7-1.1l.2.7.2.7-.6.2-.7.3c.8.4 1.9 1 3 1.2l-.2.7s1.3.6 3.5.6 3.5-.6 3.5-.6l-.2-.7c1-.3 2.2-.9 3-1.2l-1-.2zM26 25.5h.3l.1-.3.4-.8.7.4.3.1.2-.2.7-.7.7.7.2.2.3-.1.7-.4.4.8.1.3h.6c-.1.3-.2.6-.3.8-.7-.4-1.7-.6-2.7-.6-1 0-1.9.2-2.7.6-.1-.2-.2-.5-.3-.8h.3zm2.6.5c1.3 0 2.3.4 2.9.9 0 0 .2-1 .8-1.9l-1 .1-.6-1.1-1.1.5-1-1-1 1-1-.5-.6 1.1-1-.1c.6.9.8 1.9.8 1.9.5-.4 1.5-.9 2.8-.9m16.5 17.3s-.5.8-1.5.8c-1.2 0-1.8-.8-1.8-.8s.1 1-.4 2.3c-.5 1.6 0 2.8 0 2.8s-.3.1-.6.1h-.4c-1-.2-1.3-1.2-1.3-1.2s.1 3.2-3.6 3.2c0 0 .3-.4.4-1.7.2-2.4 1.8-2.7 1.8-2.7s-.9-.1-1.2-.4c-.6-.5-.5-1.1-.5-1.1 1.3 0 2.2-.5 2.8-1.2.7-.8.8-1.7.8-1.7s-.7.6-2.1.6h-.4c-.6-.1-1.1-.5-1.1-.5 1.4-.9 2.4-2.5 1.5-4.9-.7-1.9-2.4-3.4-4.1-4.4-.6-.4-.9-.8-.9-1.1 0-.8 1.1-.8 1.6-1.4.5-.6.2-1.6-.3-2.3h.4c.5 0 1.3.1 2.1.9.9 1 .5 2 .5 2h.8c1.4 0 2-1.4 2-1.4s1.4 1.8-.7 3.2c-.4.2-.5.5-.5.7v.2h.2c1.5.4 2.3 1.5 3.3 2.7 1.4 1.8 3.5 1.9 3.7 1.9 0 0-.5 1.5-1.8 1.5h-.1c-.6 0-1-.3-1-.3s-.1 3.2 2.4 4.2m-1.2-3.6c1.7 0 2.2-1.7 2.3-1.8l.2-.6h-.6c-.2 0-2.1 0-3.4-1.7l-.1-.2c-.9-1.1-1.7-2.1-3.1-2.6 0 0 .1-.1.2-.1.8-.5 1.2-1.1 1.3-1.8.2-1.1-.5-1.9-.6-2l-.5-.6-.3.7s-.5 1.1-1.5 1.1h-.3c0-.5-.1-1.3-.7-2-.8-.9-1.8-1-2.4-1h-.5l-.7.1.4.6c.3.4.7 1.3.3 1.7-.1.1-.4.2-.6.4-.5.2-1.1.5-1.1 1.3 0 .5.4 1 1.1 1.5 2.1 1.3 3.4 2.7 3.9 4.2.9 2.3-.3 3.7-1.4 4.4l-.5.3.4.4c.1.1.6.5 1.4.6h.4c.5 0 .9-.1 1.3-.2-.1.2-.2.3-.4.5-.6.7-1.4 1.1-2.5 1.1h-.4v.4c0 .1 0 .8.7 1.5.1.1.2.2.4.3-.5.4-1 1.2-1.1 2.5-.1 1.1-.3 1.5-.3 1.5l-.5.7h.8c1.4 0 2.4-.4 3.1-1.1.4-.4.7-.9.8-1.4.2.2.5.4.9.5.2 0 .3.1.5.1.4 0 .7-.1.7-.1l.5-.1-.2-.5s-.5-1 0-2.4c.2-.6.3-1.1.4-1.6.3.2.8.3 1.3.3 1.3 0 1.9-1 1.9-1l.3-.4-.5-.2c-1.5-.6-1.9-2.4-2-3.3h.7z"/><path fill="#1D1D1B" d="M42 32.4c.3 0 .7.1 1 .5 1.1 1.1 2.1 1.2 2.1 1.2-.2.4-.7.8-1.3.8-.1 0-.3 0-.4-.1-.7-.3-1-1.4-2.3-2.1.1-.1.4-.3.9-.3m-1.1.6c.6.3 1 .8 1.3 1.2.3.4.6.8 1.1.9.2.1.3.1.5.1.7 0 1.4-.4 1.7-1l.3-.6h-.7s-.9-.1-1.8-1c-.4-.4-.8-.6-1.3-.6-.6 0-1.1.3-1.1.3l-.6.4.6.3zm.3 6c-.4-3-2.6-5.2-5.1-6.6l-.6-.3c.7.1 2 .1 2.9-.7 0 0-1.4 1-4.3.1.8.5 2.4 1.3 3.8 2.5 3.6 3.2 1 6.2 1 6.2 1.3-1.3 1.3-2.8 1-4 .7 1.1 1.1 2.5 1 4.2-.1 2.4-1.4 4.5-2.8 6.2-.7.8-.8 1.8-.8 1.8s.3-.9 1.1-1.8c1.5-1.8 2.8-3.6 3-6.2.2.5.8 1.8 1.8 2.3-.1 0-1.4-.7-2-3.7M21.7 50.5c-3.7 0-3.6-3.2-3.6-3.2s-.3.9-1.3 1.2h-.4c-.3 0-.6-.1-.6-.1s.5-1.2 0-2.8c-.4-1.3-.4-2.3-.4-2.3s-.5.8-1.8.8c-1 0-1.5-.8-1.5-.8 2.5-1 2.2-4.4 2.2-4.4s-.3.2-1 .3h-.1c-1.4 0-1.8-1.5-1.8-1.5.3 0 2.3-.1 3.7-1.9 1-1.2 1.7-2.3 3.3-2.7h.2v-.2c0-.2-.1-.5-.5-.7-2.1-1.4-.7-3.2-.7-3.2s.6 1.4 2 1.4h.8s-.4-1.1.5-2c.7-.7 1.6-.9 2-.9h.4c-.5.6-.8 1.6-.3 2.3.5.5 1.6.6 1.6 1.4 0 .3-.3.7-.9 1.1-1.7 1.1-3.4 2.5-4.1 4.4-.9 2.4.1 4 1.5 4.9 0 0-.4.4-1.1.5h-.4c-1.4 0-2.1-.6-2.1-.6s.1.9.8 1.7c.7.8 1.5 1.2 2.8 1.2 0 0 0 .6-.5 1.1-.4.3-1.2.4-1.2.4s1.6.3 1.8 2.7c.4 1.5.8 1.9.7 1.9zm.4-.3s-.3-.4-.3-1.5c-.1-1.3-.6-2.1-1.1-2.5.1-.1.3-.2.4-.3.7-.7.7-1.4.7-1.5V44h-.4c-1.1 0-1.9-.3-2.5-1.1-.1-.2-.3-.3-.4-.5.3.1.8.2 1.3.2h.4c.8-.1 1.3-.5 1.4-.6l.4-.4-.5-.3c-1.1-.7-2.2-2-1.4-4.4.6-1.5 1.8-2.9 3.9-4.2.7-.4 1.1-1 1.1-1.5 0-.8-.6-1.1-1.1-1.3-.2-.1-.5-.2-.6-.4-.4-.4-.1-1.2.3-1.7l.4-.6-.7-.1h-.5c-.5 0-1.5.1-2.4 1-.7.7-.8 1.5-.7 2h-.3c-1 0-1.5-1.1-1.5-1.1l-.3-.7-.5.6s-.7.9-.5 2c.1.7.6 1.3 1.3 1.8.1.1.1.1.2.1-1.5.5-2.3 1.5-3.1 2.6l-.1.2c-1.3 1.7-3.2 1.7-3.4 1.7H11l.2.6c0 .1.6 1.8 2.3 1.8h.1c.2 0 .3 0 .5-.1-.1.9-.4 2.7-2 3.3l-.5.2.3.4s.6 1 1.9 1c.6 0 1-.1 1.3-.3 0 .4.2 1 .4 1.6.5 1.4 0 2.4 0 2.4l-.2.5.5.1s.4.1.7.1c.2 0 .3 0 .5-.1.4-.1.7-.3.9-.5.1.4.4.9.8 1.4.7.7 1.8 1.1 3.1 1.1h.8l-.5-.6z"/><path fill="#1D1D1B" d="M14.2 32.8c.3-.4.7-.5 1-.5.5 0 .9.3.9.3-1.3.7-1.6 1.8-2.3 2.1-.1 0-.3.1-.4.1-.5 0-1.1-.4-1.3-.8 0 0 1-.1 2.1-1.2m-.8 2.4c.2 0 .4 0 .5-.1.5-.2.8-.5 1.1-.9.3-.4.7-.8 1.3-1.2l.6-.3-.6-.4s-.5-.3-1.1-.3c-.5 0-1 .2-1.3.6-.9 1-1.8 1-1.8 1h-.7l.3.6c.3.6 1 1 1.7 1m2.9 5.2c-.1-1.7.4-3.1 1-4.2-.4 1.2-.3 2.6 1 4 0 0-2.6-3.1 1-6.2 1.4-1.2 3-1.9 3.8-2.5-2.9 1-4.3-.1-4.3-.1.9.8 2.1.8 2.9.7l-.6.3c-2.5 1.3-4.7 3.5-5.1 6.6-.6 3-1.8 3.8-1.8 3.8 1-.5 1.7-1.8 1.8-2.3.2 2.6 1.5 4.5 3 6.2.8.9 1.1 1.8 1.1 1.8s-.2-1-.8-1.8c-1.5-1.8-2.9-3.9-3-6.3m11.5-6.2v.6c.2-.3.6-.2.6-.2v.9s0 .4-.2.6h.8c-.2-.2-.2-.6-.2-.6v-.9s.4-.1.6.2v-.6h-1.6zm-.4-3.5c.3.2.4.3.4.3h.2v-.6l-1-.4c-.1 0 0 .3.4.7m2.5 0c.5-.4.5-.7.5-.7l-1 .4v.6l.1-.1c-.1 0 .1 0 .4-.2"/><path fill="#1D1D1B" d="M28.6 29.1l-2.5-1c.2-.5 1.2-.9 2.5-.9s2.3.4 2.5.9l-2.5 1zm1.9 3.1l-1.7.9v-3.5l2.3-.8-.6 3.4zm1 .9l.8.4.2.1c-.4.1-.8.3-1 .6l-.2.2c-.1.1-.1.2-.2.2-.1.1-.1.2-.2.3-.5.9-1.4 1.5-2.2 1.5-.8 0-1.6-.6-2.2-1.5-.1-.1-.1-.2-.2-.3v-.1c-.1-.1-.1-.2-.2-.2v-.1l-.2-.2c-.3-.3-.6-.5-1-.6l.2-.1.8-.4.8-.4 2.1 1.1 2.1-1.1.6.6zm3 3.2c-.2.4-.3.9-.3 1.4v3.1c-.7-.1-.7-.8-.7-.8v-.1h-.1c-.3 0-.5-.1-.6-.3-.3-.3-.3-.8-.3-.8s-.4.5.1 1c.2.2.4.4.7.4.1.4.4.9 1 1v1.5h-1.9c-.9-.5-.5-1.4-.5-1.4l.1-.2-.2-.1c-1-.4-.7-1.3-.7-1.4v-.1l-.1-.1c-.8-.4-.7-1.4-.7-1.4-.2.2-.3.6-.2 1-.1.1-.2.2-.3.4-.8-.2-.8-1-.8-1v-.1h-.1c-.3-.1-.5-.3-.6-.5-.1-.3-.1-.5 0-.7h.9c.5-.1 1.1-.3 1.7-.9h3.6v.1zm-2.4 13.6l.2-1.1v-.2c.1 0 .1 0 .2.1h.2c.3 0 .5-.2.6-.3l.2-.2-.1-.2s-.3-.5-.5-.8c0-.1-.1-.1-.1-.2-.3-.4-.6-.9-1.2-.9h-.1c-.1 0-.2 0-.3.1-.2-.1-.4-.1-.6-.1-.3 0-.5.1-.6.1h-.1l-1.3-.2s-.1 0-.1-.1l.3-.1c-.1-.9-.9-1.4-1.4-1.6 0-.1-.1-.2-.1-.2l-.3-.2-.2.3-.1.1-1.7-.7 1.1 1.4-.4.7c-.2.2 0 .3 0 .3l.5.3.5-.2c0 .1-.1.4-.1.4l-.8-.2-.9.5c-.4.3-.5.9-.3 1.2l.1.2.1.3.3-.1c-.1.3-.1.7.1.9l.2.2.2.3.3-.3c.1-.1.3-.4.4-.6l.1-.2-.1-.1.1-.2 1.1.3.2.1.1-.2.1-.1h.2c.4.1.8.1 1.1.1.3 0 .5 0 .7-.1 0 0 .6.6.6.7l-.5.8v.1c-.7.1-1 .2-1.4.6-.6-.6-1-.6-2.5-.6-1.8 0-3.1-1.1-3.1-2.8V43h11.1v4.2c.1 1.4-.7 2.3-2 2.7m-6.8-2.4l.1.1c0 .1-.5.3-.5.3l-.1-.2c-.1-.2-.1-.6.2-.8l.7-.4.7.2c0 .2.1.4.1.4l-.8-.1-.5.3s0 .1.1.2m6.7 1.2l-.2 1.2h-.5l.3-1.2c.1-.4-.9-.5-1.4-1.2-.2.3-.7.3-1.1.3-.4 0-.8-.1-1-.1h-.2c-.1 0-.3 0-.4.2l-.1.1-1.3-.3-.3.5v.2l.1.1c-.1.2-.3.5-.3.5l-.2-.2c-.2-.2-.1-.5 0-.8l.5-.9 1.1.2-.2-.3c-.2-.5.1-1.2.2-1.6 0 .1-.1.1-.2.1h-.4l-.3.2-.2-.2v-.2l.5-.6-.6-.7.9.5.3-.3c.1.1 0 .3 0 .3.3 0 1.1.4 1.1 1.5v.1c.1.1.2.3.4.3l1.3.1c.1 0 .4-.2.8-.2.2 0 .4 0 .6.2 0 0 .1-.1.3-.1.6 0 .8.5 1.1.9.2.3.5.8.5.8-.1.1-.2.2-.4.2h-.2c-.6-.1-.7-1.3-1-1.4h-.1c-.1 0-.2.1-.2.1.2.4.1.6.2.9.1.2.4.4.4.5.2 0 .2.1.2.3M30.8 50h-.5l.4-1.1c.1-.2-.2-.4-.4-.5.2.1.6.4.9.5 0-.1-.4 1.1-.4 1.1m-5.4-10.3l.1-2 .4-.5.3.6-.6 1.9h-.2zm.3.6c.1.2.2.3.3.3 0 .1 0 .4-.1.6v.2c-.1 0-.4 0-.6-.1-.2-.1-.6-.5-.5-1 .1-.1.3-.2.6-.2.1 0 .2 0 .3.2m5.2.5c-.3.3-1.2.9-1.5 1.1l-3.1-.6v-.1c0-.2.1-.4.1-.6H29v-.1s.9-.8 1.3-1.3c.1.1.2.2.4.3-.1.6-.1 1 .2 1.3m-4.2-4.5c.4.4.7.6 1.1.7 0 .2-.1.5.1.9.1.3.4.5.7.7 0 .4.3.9.9 1.2l-.7.7h-2.6c-.1 0-.2-.1-.2-.2l.4.1c.1 0 .2-.1.2-.1 0-.1 0-.2-.1-.2L26 40l.6-2-.6-1.3-.9.9-.1 2-.6-.1c-.1 0-.2 0-.2.1s0 .2.1.2h.2c-.1 0-.1.1-.2.1v.1c-.1.6.2 1.1.5 1.4v.1c0 .1 0 .2.1.2.1.1.1.1.2.1h.1c.2 0 .3-.1.3-.3h.5l3.4.6h.1c.3-.2 1.3-.9 1.6-1.2.1.1.2.2.3.2-.1.4-.1.9.3 1.4h-8.6v-5c0-.5-.1-1-.3-1.4h3.9v.2zm-.5-7.5l2.3.8v3.5l-1.7-.9-.6-3.4zm5.5-.5c0-.9-1.5-1.6-3.1-1.6s-3.1.8-3.1 1.6v.2l.6 3.7-.6.4-1.7 1s-.4.2-.5.3c-.6.4-.8 1.1-.4 1.3.1-.5.5-1.1 1.3-1.1.6 0 1 .3 1.3.7.1.1.2.2.3.4.1.2.2.3.3.4h-4.3c.3.6.6 1.3.6 2v9.5c0 2.3 1.8 3.4 3.7 3.4 1.5 0 1.7-.1 2.5.7.8-.8 1-.7 2.5-.7 1.9 0 3.7-1.1 3.7-3.4v-9.5c0-.7.3-1.4.6-2h-4.3c.1-.1.2-.3.3-.4.1-.1.2-.2.2-.4.3-.4.8-.7 1.3-.7.8 0 1.2.5 1.3 1.1.4-.3.2-.9-.4-1.3-.2-.1-.5-.3-.5-.3l-1.7-1-.6-.4.6-3.7.1-.2zm30.6 7.8c.1-.2.3-.4.4-.6h.1v4.3h2v-7.3h-2l-2.2 3.3c-.1.2-.2.4-.4.6-.1.2-.2.4-.4.6h-.1v-4.5h-2v7.3h2c.4-.5.7-1 1.1-1.6.4-.5.7-1.1 1.1-1.6.2-.1.3-.3.4-.5m6.3.7h2.9v3.1h2v-7.4h-2v2.8h-2.9v-2.8h-2v7.4h2v-3.1m10.7 1.4c-.2.1-.5.2-.8.2h-1.3v-1.8h1.3c.3 0 .6.1.8.2.2.2.3.4.3.7 0 .3-.1.5-.3.7m2.3-.7c0-.8-.3-1.3-.8-1.8-.5-.4-1.2-.6-2.1-.6h-1.4v-2.6h-2v7.3h3.5c.8 0 1.5-.2 2-.6.5-.3.8-.9.8-1.7m23.3.9c-.2.1-.5.2-.8.2v-4.7c.6.1 1.1.3 1.5.7.3.4.5 1 .5 1.6 0 .4-.1.7-.2 1-.1.3-.3.5-.4.7-.2.2-.4.4-.6.5m-2.7.2c-.3 0-.5-.1-.8-.2-.2-.1-.5-.3-.7-.5-.2-.2-.3-.4-.4-.7-.1-.3-.2-.6-.2-1 0-.6.2-1.2.5-1.6.4-.4.9-.7 1.5-.7v4.7h.1zm4.7.3c.3-.3.6-.7.8-1.2.2-.5.3-1 .3-1.6 0-.5-.1-1.1-.3-1.5-.2-.5-.5-.8-.8-1.2-.3-.3-.8-.6-1.2-.8-.5-.2-1-.3-1.5-.3v-2.8l-1.8.7v2.1c-.5 0-1.1.1-1.5.3-.5.2-.9.5-1.2.8-.3.3-.6.7-.8 1.2-.2.4-.3.9-.3 1.5s.1 1.1.3 1.6c.2.5.5.9.8 1.2.3.3.8.6 1.2.8.5.2 1 .3 1.6.3v3.1l1.9-.7V40c.5 0 1.1-.1 1.5-.3.2-.2.6-.5 1-.8m9.7-1.7c-.1.3-.3.5-.4.7-.2.2-.4.4-.6.5-.2.1-.5.2-.8.2v-4.7c.6.1 1.1.3 1.5.7.3.4.5 1 .5 1.6 0 .4-.1.7-.2 1m-3.7 1.4c-.3 0-.5-.1-.8-.2-.2-.1-.5-.3-.6-.5-.2-.2-.3-.4-.4-.7-.1-.3-.2-.6-.2-1 0-.6.2-1.2.5-1.6.4-.4.9-.7 1.5-.7v4.7zm5.5-.9c.2-.5.3-1 .3-1.6 0-.5-.1-1.1-.3-1.5-.2-.5-.5-.8-.8-1.2-.3-.3-.8-.6-1.2-.8-.5-.2-1-.3-1.5-.3v-2.8l-1.8.7v2.1c-.5 0-1.1.1-1.5.3-.5.2-.9.5-1.2.8-.4.3-.6.7-.8 1.2-.2.4-.3.9-.3 1.5s.1 1.1.3 1.6c.2.5.5.9.8 1.2.3.3.8.6 1.2.8.5.2 1 .3 1.6.3v3.1l1.9-.7V40c.5 0 1.1-.1 1.5-.3.5-.2.9-.5 1.2-.8.1-.3.4-.7.6-1.2m-68.6-6.6h2.9v8.8h2.1v-8.8h2.7v-1.7h-7.7v1.7m40 1.5h-2.3l-2.6 3.1v-3.2h-2v7.4h2v-3.6l2.6 3.6h2.3l-2.9-4 2.9-3.3m5.4 4.5c-.1.3-.2.5-.3.7-.1.2-.3.4-.5.5-.2.1-.4.2-.7.2-.5 0-.9-.2-1.2-.6-.3-.4-.4-1-.4-1.7 0-.6.1-1.2.4-1.6.3-.4.7-.6 1.2-.6s1 .2 1.2.6c.3.4.4 1 .4 1.6 0 .3 0 .6-.1.9m1.1-3.7c-.3-.3-.7-.6-1.1-.8-.4-.2-.9-.3-1.5-.3-.5 0-1 .1-1.5.3-.4.2-.8.4-1.1.8-.3.3-.6.7-.7 1.2-.2.5-.3 1-.3 1.6 0 .6.1 1.1.3 1.6.2.5.4.9.7 1.2.3.3.7.6 1.1.8.4.2.9.3 1.5.3.5 0 1-.1 1.5-.3.4-.2.8-.4 1.1-.8.3-.3.6-.7.7-1.2.2-.5.3-1 .3-1.6 0-.6-.1-1.1-.3-1.6-.1-.5-.4-.9-.7-1.2M57.1 48.9c0-.4-.1-.8-.4-1-.3-.2-.6-.4-1.1-.4h-2.1v2.7h2.1c.5 0 .8-.1 1.1-.3.3-.2.4-.6.4-1zm-1.5-2.1c.7 0 1.3.2 1.7.5.4.3.6.9.6 1.6 0 .7-.2 1.2-.6 1.5-.4.4-1 .5-1.7.5h-2.9v-7.1h4.6v.8h-3.8v2.2h2.1zm6.6 1.9c-.2-.1-.4-.2-.7-.3-.2-.1-.5-.1-.8-.1-.4 0-.6.1-.9.3-.2.2-.4.5-.4.8 0 .4.1.6.3.8.2.2.5.3.9.3.3 0 .6-.1.8-.2.3-.1.5-.3.7-.5v-1.1h.1zm-1.1-3.2c.6 0 1.1.1 1.4.4s.5.7.5 1.3V51h-.8v-.5c-.3.3-.6.4-.9.5-.3.1-.6.1-.8.1-.2 0-.4 0-.6-.1l-.6-.3c-.2-.1-.3-.3-.4-.5-.1-.2-.2-.5-.2-.8 0-.3 0-.5.1-.7.1-.2.2-.4.4-.5.2-.1.4-.3.6-.3.2-.1.5-.1.8-.1.2 0 .5 0 .7.1.2 0 .5.1.8.3v-.7c0-.4-.1-.7-.3-.9-.2-.2-.5-.3-.9-.3-.3 0-.5 0-.7.1-.2.1-.5.2-.7.3l-.2-.7c.3-.1.5-.2.8-.3.3-.1.6-.2 1-.2zm6.7 5.5v-2.5H65V51h-.8v-5.4h.8v2.2h2.8v-2.2h.8V51h-.8m5.9-5.3l-2.4 2.4 2.5 2.9h-.9l-2.4-2.7V51h-.7v-5.3h.7V48l2.3-2.3h.9"/></svg>