<svg xmlns="http://www.w3.org/2000/svg" width="125.4" height="78.4"><path d="M57.7 51h-6.1l3.8-23.6h6.2m-15.2 0l-5.8 16.2-.7-3.5-2.1-10.6s-.2-2.1-2.9-2.1h-9.7l-.1.4s3 .6 6.4 2.7L36.9 51h6.4L53 27.4h-6.6zM94.6 51h5.6l-4.9-23.5h-4.9c-2.3 0-2.8 1.8-2.8 1.8L78.5 51h6.4l1.3-3.5H94l.6 3.5zm-6.7-8.4l3.2-8.8 1.8 8.8h-5zm-9-9.5l.9-5.1s-2.7-1-5.5-1c-3 0-10.3 1.3-10.3 7.8 0 6.1 8.5 6.2 8.5 9.3 0 3.2-7.6 2.6-10.1.6l-.9 5.3s2.7 1.3 6.9 1.3 10.5-2.2 10.5-8.1c0-6.1-8.6-6.7-8.6-9.3.1-2.6 6-2.2 8.6-.8z" fill="#0066B2"/><path fill="#F9A533" d="M39.9 40.1l-2.1-10.6s-.2-2.1-2.9-2.1h-9.7l-.1.4s4.6 1 9.1 4.6c4.3 3.4 5.7 7.7 5.7 7.7z"/></svg>