<svg xmlns="http://www.w3.org/2000/svg" id="Слой_1" width="858" height="261"><style id="style2">.st0{fill:#032241}.st3{fill:#09091e}.st4{fill:#07071e}.st5{fill:#08081f}</style><path d="M176.523 207.501c6.37-4.483 11.65-9.378 16.269-14.996 31.393-38.186 16.771-97.223-28.775-116.449-27.498-11.607-64.1-7.474-87.307 16.518-32.033 33.115-27.426 86.256 10.057 113.804.403.296 1.001.39 1.114 1.259-8.179 2.466-16.386 4.949-24.599 7.413-4.257 1.278-8.575 2.379-12.769 3.837-2.615.909-4.052.098-5.294-2.156-4.406-7.998-8.911-15.941-13.365-23.912-2.204-3.945-4.364-7.914-6.571-11.857-1.611-2.877-1.348-4.712 1.151-6.887 4.717-4.106 9.339-8.335 14.232-12.22 3.311-2.628 4.61-5.769 4.522-9.896-.123-5.744-.002-11.498.175-17.243.104-3.382-.968-6.005-3.575-8.254-4.807-4.147-9.44-8.495-14.124-12.784-2.7-2.472-3.038-4.282-1.2-7.353 7.121-11.894 14.298-23.755 21.439-35.638 1.32-2.198 3.077-2.768 5.495-1.895 6.315 2.28 12.663 4.469 18.994 6.704 3.143 1.11 5.981.821 8.952-.962 5.288-3.173 10.763-6.044 16.231-8.904 2.949-1.543 4.55-3.905 5.217-7.06 1.289-6.1 2.632-12.189 3.887-18.296.84-4.088 1.974-5.059 6.159-5.059 13.206.001 26.411-.008 39.617-.017 3.623-.003 4.827.878 5.608 4.437 1.337 6.089 2.565 12.202 3.883 18.296.681 3.148 1.932 5.875 5.023 7.519 6.132 3.261 12.167 6.704 18.277 10.005 2.208 1.193 4.556.951 6.847.154 6.341-2.205 12.674-4.433 19.008-6.659 3.088-1.085 4.366-.743 6.058 2.051 6.29 10.388 12.518 20.815 18.774 31.224.753 1.252 1.536 2.486 2.311 3.724 2.034 3.252 1.793 5.165-1.078 7.788-4.689 4.283-9.346 8.603-14.133 12.775-2.505 2.183-3.592 4.756-3.487 8.043.212 6.628.34 13.259.391 19.89.018 2.342.784 4.188 2.545 5.709a3109.85 3109.85 0 0 1 16.119 14.02c2.262 1.98 2.614 3.942 1.207 6.472-6.576 11.818-13.144 23.64-19.759 35.436-2.065 3.681-2.431 3.767-6.447 2.56-12.186-3.658-24.368-7.32-37.079-11.141z" class="st0" id="XMLID_206_" fill="#032241"/><path d="M162.366 199.686c0-4.315.061-8.235-.033-12.152-.033-1.351.913-1.771 1.682-2.421 14.061-11.869 20.752-27.133 18.545-45.278-2.513-20.656-14.464-34.766-34.052-41.597-29.36-10.238-60.994 8.76-65.841 39.544-2.976 18.904 3.535 34.699 18.056 47.128 1.322 1.131 1.949 2.183 1.882 3.933-.134 3.487-.04 6.983-.04 10.879-4.2-2.08-7.873-4.471-11.249-7.29-21.507-17.961-28.561-47.531-16.472-72.718 11.118-23.162 30.185-34.814 55.873-35.571 11.328-.334 22.185 1.59 32.237 7.045 18.82 10.214 29.912 26.058 32.322 47.213 2.56 22.482-5.629 41.008-23.272 55.224-2.497 2.012-5.356 3.576-8.057 5.331-.35.228-.762.357-1.581.73z" class="st0" id="XMLID_205_" fill="#032241"/><path d="M132.604 119.647a25.736 25.736 0 0 1 25.556 26.049c-.138 14.08-11.804 25.458-25.993 25.351-14.227-.107-25.552-11.78-25.4-26.181.148-13.936 11.843-25.352 25.837-25.219z" id="XMLID_204_" fill="#0e6ae5"/><path id="XMLID_91_" class="st3" d="M424.43 97.865v1.621c0 13.797-.014 27.595.027 41.392.003 1.066-.255 1.332-1.307 1.297-2.517-.085-5.039-.052-7.557-.012-.739.012-1.023-.128-1.022-.961.025-19.996.025-39.992 0-59.989-.001-.819.254-.972 1.002-.961 2.839.041 5.68.057 8.518-.009.821-.019 1.177.293 1.538.962 6.532 12.104 13.089 24.194 19.642 36.287.055.102.116.2.178.308.452-.163.511-.609.69-.939 6.446-11.88 12.886-23.762 19.299-35.66.367-.681.731-.974 1.544-.956 2.838.062 5.679.054 8.518.005.795-.014.988.218.987.997-.021 19.956-.023 39.912.002 59.869.001.861-.253 1.068-1.077 1.051-2.518-.052-5.04-.073-7.557.007-1.046.033-1.331-.227-1.328-1.305.041-13.797.027-27.595.027-41.392v-1.312c-.452.203-.513.573-.664.851-5.69 10.428-11.383 20.855-17.047 31.298-.409.754-.838 1.135-1.743 1.053-1.426-.128-3.13.493-4.222-.233-1.034-.688-1.451-2.313-2.122-3.536-5.212-9.51-10.419-19.023-15.629-28.534-.163-.298-.34-.586-.697-1.199z" fill="#09091e"/><path id="XMLID_90_" class="st3" d="M490.711 111.193c0-9.917.012-19.835-.02-29.752-.003-.903.173-1.2 1.154-1.197 13.156.037 26.313.036 39.469.001.932-.002 1.121.269 1.095 1.137a99.91 99.91 0 0 0 .003 6.477c.033.929-.257 1.111-1.136 1.108-9.837-.032-19.675.001-29.512-.05-1.095-.006-1.293.303-1.281 1.321a572.16 572.16 0 0 1-.008 14.995c-.017 1.122.345 1.263 1.328 1.258 8.358-.038 16.715-.004 25.073-.046.972-.005 1.306.189 1.258 1.22a68.948 68.948 0 0 0-.003 5.876c.035.904-.215 1.112-1.11 1.108-8.438-.038-16.875-.002-25.313-.049-1.022-.006-1.234.276-1.225 1.253.05 5.478.051 10.957-.001 16.435-.009.97.28 1.165 1.192 1.162 10.037-.032 20.075.005 30.111-.053 1.202-.007 1.439.336 1.389 1.448-.095 2.075-.062 4.158-.01 6.237.02.794-.134 1.088-1.021 1.086a9080.59 9080.59 0 0 0-40.429-.001c-.897.002-1.024-.319-1.022-1.103.027-9.957.019-19.914.019-29.871z" fill="#09091e"/><path id="XMLID_89_" class="st3" d="M361.992 111.188c0-9.919.012-19.838-.02-29.757-.003-.901.176-1.19 1.148-1.187 13.119.037 26.238.032 39.356.006.842-.002 1.176.122 1.14 1.078a96.129 96.129 0 0 0-.005 6.598c.026.859-.232 1.043-1.06 1.04-9.839-.03-19.678-.003-29.517-.045-1.022-.004-1.238.285-1.228 1.26.051 4.999.053 9.999-.001 14.998-.011 1.01.175 1.327 1.274 1.32 8.359-.056 16.718-.017 25.077-.05.908-.004 1.257.18 1.216 1.169-.082 1.996-.073 4-.002 5.998.031.883-.279 1.031-1.081 1.028-8.399-.028-16.799.007-25.197-.047-1.098-.007-1.296.309-1.286 1.328a699.69 699.69 0 0 1-.008 16.198c-.016 1.169.381 1.333 1.408 1.33 9.959-.035 19.918.002 29.877-.051 1.19-.006 1.467.33 1.415 1.464-.097 2.115-.059 4.239-.011 6.358.017.743-.203.942-.942.94a9347.219 9347.219 0 0 0-40.675.009c-.975.003-.881-.488-.881-1.106.004-9.961.003-19.92.003-29.879z" fill="#09091e"/><path id="XMLID_88_" class="st3" d="M333.108 115.54c0 8.477-.014 16.953.02 25.429.004.928-.218 1.228-1.183 1.201a126.028 126.028 0 0 0-7.555.002c-1.038.033-1.221-.32-1.219-1.277.029-16.833.006-33.666.053-50.499.003-1.229-.31-1.493-1.501-1.48-6.037.066-12.075.016-18.112.048-.808.004-1.106-.165-1.08-1.038.065-2.197.057-4.398.003-6.596-.02-.803.141-1.084 1.025-1.083 16.393.029 32.787.027 49.18.002.761-.001.926.209.911.932-.048 2.278-.063 4.559.006 6.836.026.857-.308.945-1.026.943-6.117-.024-12.235.008-18.352-.037-.948-.007-1.193.245-1.189 1.188.034 8.477.019 16.953.019 25.429z" fill="#09091e"/><path id="XMLID_87_" class="st3" d="M558.111 115.59c0-8.478-.019-16.957.025-25.435.005-1.006-.251-1.242-1.244-1.234-6.078.05-12.158.001-18.236.05-.973.008-1.194-.28-1.166-1.2.066-2.198.057-4.399.002-6.598-.019-.762.221-.922.942-.921 16.397.02 32.793.02 49.19 0 .716-.001.964.15.945.917-.055 2.238-.078 4.481.007 6.717.037.981-.343 1.08-1.168 1.076-6.039-.031-12.078.008-18.116-.041-1.021-.008-1.335.189-1.332 1.291.042 16.876.02 33.753.051 50.63.002 1.002-.159 1.381-1.278 1.335a96.033 96.033 0 0 0-7.436-.003c-1.058.039-1.212-.321-1.208-1.271.038-8.437.022-16.875.022-25.313z" fill="#09091e"/><path d="M683.234 167.84c-.093.01-.198.031-.316.064-1.686.472-3.42.775-5.117 1.211-3.566.916-6.478 2.765-8.022 6.233-2.13 4.784-2.36 9.754-.789 14.716 1.248 3.941 4.263 5.766 8.485 5.516 4.17-.247 7.235-2.716 8.138-6.535.335-1.417.369-2.85.237-4.285-.506-5.493-5.115-8.917-10.438-7.77-1.914.413-3.353 1.566-4.625 3.133.42-4.629 2.918-7.594 7.256-8.705 1.776-.454 3.552-.927 5.352-1.264.95-.178.905-.634.726-1.334-.145-.568-.232-1.047-.887-.98zm-5.798 11.332c3.196.225 5.48 2.502 5.789 5.789.04.435.006.875.006 1.314.124 1.39-.175 2.71-.829 3.92-1.214 2.25-3.163 3.334-5.695 3.215-2.668-.126-4.447-1.59-5.412-4.027-.676-1.708-.773-3.493-.351-5.287.779-3.314 3.216-5.155 6.492-4.924z" id="XMLID_86_" fill="#07071e"/><path d="M699.393 175.541a8.055 8.055 0 0 0-2.604.545c-1.65.643-2.954 1.775-4.2 3.334 0-.976-.075-1.697.018-2.395.135-1.014-.335-1.13-1.197-1.144-.924-.016-1.208.221-1.203 1.19.041 8.275.055 16.55-.012 24.825-.01 1.21.488 1.212 1.393 1.243.954.032 1.295-.162 1.271-1.215-.077-3.42-.029-6.841-.029-10.49.387.482.617.785.865 1.074 3.752 4.367 10.134 4.072 13.36-.617 2.672-3.884 2.434-9.452-.557-13.079-1.817-2.203-4.467-3.378-7.105-3.271zm-.159 2.273c1.085-.007 2.167.3 3.229.938 2.57 1.542 3.718 3.935 3.808 6.021-.01 5.204-3.125 8.615-7.015 8.536-3.425-.07-6.426-3.117-6.426-6.524 0-.878.076-1.764-.014-2.633-.27-2.6 1.094-4.216 3.172-5.4 1.073-.611 2.161-.93 3.246-.938z" id="XMLID_85_" fill="#07071e"/><path d="M747.943 167.828a1.642 1.642 0 0 0-.314.059c-1.962.53-3.975.887-5.93 1.443-3.819 1.086-6.525 3.456-7.851 7.248-1.463 4.183-1.683 8.465-.506 12.73 1.833 6.644 9.954 8.617 14.763 3.633 2.305-2.389 2.696-5.372 2.284-8.476-.451-3.404-2.133-6.052-5.504-7.201-3.288-1.12-6.304-.535-8.787 2.047-.175.183-.32.353-.758.283.056-.15.097-.242.123-.338.033-.114.057-.23.08-.348.835-4.159 3.329-6.684 7.465-7.613 1.714-.385 3.403-.899 5.13-1.19 1.06-.178.652-.77.563-1.287-.085-.496-.114-1.035-.758-.99zm-6.033 11.33c3.13.181 5.426 2.305 5.871 5.447.08.552.102 1.111.131 1.43.001 4.024-2.132 6.87-5.297 7.307-3.835.529-6.797-1.98-7.261-6.158a9.263 9.263 0 0 1 .251-3.442c.8-2.977 3.262-4.76 6.305-4.584z" id="XMLID_84_" fill="#07071e"/><path id="XMLID_83_" class="st4" d="M530.237 188.79c1.015-1.814 1.968-3.507 2.912-5.205 1.279-2.299 2.549-4.602 3.829-6.901.359-.644 2.103-1.108 2.725-.738.31.185.201.491.202.749.006 5.918-.015 11.836.02 17.754.008 1.292-.887.672-1.41.758-.57.094-1.129.194-1.112-.824.069-4.077.028-8.157.028-12.235v-1.141l-.209-.073c-.23.391-.469.777-.69 1.173-1.692 3.028-3.375 6.062-5.075 9.086-.661 1.175-1.776 1.178-2.438.01-1.927-3.4-3.84-6.807-5.783-10.255-.378.267-.195.652-.196.955-.016 4.118-.059 8.238.019 12.355.024 1.238-.7.951-1.366.97-.675.019-1.265.156-1.252-.964.065-5.677.02-11.356.049-17.033.002-.436-.379-1.246.401-1.264.856-.02 1.912-.56 2.556.618 2.008 3.671 4.053 7.322 6.085 10.98.202.364.416.723.705 1.225z" fill="#07071e"/><path d="M554.256 175.566c-3.933-.157-7.005 1.497-8.871 4.985-1.996 3.73-1.772 7.494.605 10.978 3.531 5.176 11.682 5.46 15.283.62.978-1.315.946-1.32-.548-1.79-.662-.208-1.008-.125-1.34.485-.223.407-.58.768-.946 1.066-2.078 1.695-4.406 2.199-6.935 1.223-2.707-1.045-4.069-3.195-4.643-5.944-.162-.779.306-.73.817-.728 2.437.009 4.875.004 7.312.004h7.43c.482 0 .924.08.943-.688.124-5.024-3.37-9.98-9.107-10.21zm-.6 2.022c3.44-.065 6.506 2.51 7.096 5.912.135.776-.046 1.012-.863.988-2.034-.06-4.07-.02-6.106-.02-2.075 0-4.148-.028-6.222.016-.678.014-.797-.216-.711-.824.483-3.416 3.373-6.007 6.806-6.072z" id="XMLID_82_" fill="#07071e"/><path d="M335.105 175.533c-2.589-.046-5.157.952-7.021 2.856-2.806 2.866-3.66 7.506-2.022 11.242 3.409 7.77 12.766 7.267 16.348 2.537.981-1.295.942-1.353-.535-1.805-.642-.196-.982-.16-1.332.479-.277.506-.75.948-1.225 1.295-2.16 1.58-4.535 1.983-7 .873-2.525-1.137-3.829-3.259-4.324-5.932-.144-.779.399-.608.8-.61 2.439-.007 4.875-.003 7.313-.003 2.518 0 5.037-.01 7.555.008.56.004.84-.072.867-.764.157-3.98-2.304-7.942-5.943-9.453a9.517 9.517 0 0 0-3.48-.723zm-.433 2.055c3.365-.12 6.328 2.185 7.148 5.543.218.893.265 1.456-1.02 1.37-1.945-.128-3.907-.032-5.86-.032-2.035 0-4.07-.032-6.102.015-.745.018-.98-.152-.832-.93.645-3.405 3.346-5.847 6.666-5.966z" id="XMLID_81_" fill="#07071e"/><path id="XMLID_80_" class="st4" d="M481.076 180.287c-.406.156-.547.545-.77.85-3.26 4.446-6.516 8.895-9.773 13.343-.45.614-2.065 1.044-2.65.716-.327-.183-.205-.489-.206-.744-.007-5.919.006-11.839-.015-17.758-.004-1.261.905-.684 1.448-.764.583-.087 1.154-.157 1.143.837-.052 4.399-.022 8.799-.022 13.198v1.515c1.469-1.992 2.759-3.731 4.038-5.479 2.242-3.062 4.527-6.094 6.685-9.214.671-.97 1.479-.89 2.383-.871.504.011.411.391.411.691.004 5.999-.001 11.999.01 17.998.001.448-.105.672-.596.628-.357-.032-.726-.051-1.078.003-.777.119-.91-.233-.905-.936.03-4.399.018-8.799.009-13.199-.003-.261.113-.552-.112-.814z" fill="#07071e"/><path id="XMLID_79_" class="st4" d="M815.087 191.217c1.41-1.923 2.821-3.844 4.229-5.768 2.169-2.964 4.369-5.906 6.487-8.906.682-.966 1.557-.576 2.377-.587.399-.006.242.436.242.678.01 5.957 0 11.913.02 17.87.002.573-.152.805-.733.73a3.016 3.016 0 0 0-.838.001c-.832.128-1.07-.183-1.061-1.034.045-4.357.021-8.715.021-13.072v-1.169c-.489.651-.808 1.067-1.117 1.49l-9.619 13.148c-.369.504-2.067.898-2.583.617-.279-.152-.197-.41-.198-.634-.004-5.997.002-11.993-.012-17.99-.001-.512.156-.664.676-.695 1.89-.11 1.889-.134 1.889 1.785v13.415l.22.121z" fill="#07071e"/><path d="M438.46 175.549c-5.32.013-9.519 4.465-9.509 10.084.01 5.679 4.134 9.964 9.582 9.953 5.424-.01 9.602-4.337 9.617-9.961.015-5.601-4.301-10.09-9.69-10.076zm.044 2.28c1.614-.008 3.233.63 4.562 1.917 3.133 3.031 3.307 8.162.325 11.334-1.91 2.033-4.284 2.826-6.957 1.877-2.9-1.03-4.383-3.3-4.813-6.293-.049-.352-.006-.717-.006-1.076-.047-2.266.732-4.204 2.348-5.799 1.316-1.299 2.927-1.953 4.54-1.96z" id="XMLID_78_" fill="#07071e"/><path d="M763.092 175.549c-5.344-.006-9.561 4.4-9.58 10.014-.02 5.686 4.086 10.01 9.515 10.023 5.452.01 9.65-4.277 9.684-9.893.033-5.625-4.246-10.137-9.62-10.144zm.137 2.289c1.656.036 3.307.743 4.623 2.111 2.936 3.054 2.988 8.115.058 11.176-1.929 2.015-4.298 2.782-6.969 1.807-2.898-1.057-4.35-3.337-4.763-6.328-.044-.312-.006-.637-.006-.956-.05-2.31.741-4.285 2.396-5.904 1.34-1.31 3.003-1.943 4.66-1.906z" id="XMLID_77_" fill="#07071e"/><path d="M396.563 175.549c-5.313.009-9.577 4.488-9.573 10.058.004 5.622 4.196 9.98 9.596 9.979 5.465-.002 9.6-4.282 9.603-9.941.004-5.674-4.22-10.105-9.627-10.096zm-.512 2.271c.857-.067 1.752.064 2.676.41 2.878 1.08 4.344 3.359 4.806 6.333.055.353.043.715.057.97-.027 4.45-3.317 7.932-7.315 7.764-2.47-.104-4.262-1.392-5.505-3.483-1.937-3.26-1.38-7.561 1.334-10.105 1.19-1.118 2.517-1.777 3.947-1.889z" id="XMLID_76_" fill="#07071e"/><path d="M655 175.55c-5.321-.012-9.607 4.429-9.648 9.997-.042 5.602 4.162 10.027 9.537 10.039 5.547.012 9.658-4.241 9.66-9.992.003-5.615-4.197-10.032-9.549-10.043zm.193 2.311c3.37.165 6.343 2.967 6.69 6.625.033.356.047.714.088 1.317.013 3.824-3.033 7.375-6.65 7.504-4.41.158-7.977-4.11-7.27-8.7.532-3.453 2.818-6.129 5.681-6.65a6.4 6.4 0 0 1 1.461-.096z" id="XMLID_75_" fill="#07071e"/><path d="M720.268 175.521c-2.462-.01-4.97.89-7.034 2.315-.785.542.122 1.025.268 1.518.169.57.51.262.816.066 1.08-.691 2.222-1.261 3.457-1.615 4.885-1.4 8.42 1.838 7.414 6.818-.34-.1-.675-.212-1.017-.297-3-.747-5.999-1.008-8.928.256-2.685 1.158-4 3.322-3.64 5.818.386 2.672 2.513 4.767 5.294 5.096 3.394.401 6.29-.648 8.76-3.308.11.788-.017 1.438.242 2.046.351.811 1.03 1.083 1.83 1.096.37.006.971.126 1.047-.309.113-.643.363-1.645-.103-1.939-1.015-.641-.744-1.497-.756-2.318-.04-2.84.039-5.683-.072-8.518-.094-2.417-1.143-4.425-3.305-5.635-1.337-.748-2.797-1.083-4.273-1.09zm-.377 9.829c1.691-.045 3.37.323 5.02.912.916.328.225 1.272.36 1.605.415 2.53-.9 3.788-2.625 4.764-1.466.829-3.072 1.093-4.738.922a4.295 4.295 0 0 1-3.855-3.797c-.197-1.646.829-3.146 2.783-3.842a9.8 9.8 0 0 1 3.055-.564z" id="XMLID_74_" fill="#07071e"/><path id="XMLID_72_" class="st4" d="M502.911 179.861c-3.657 4.998-7.146 9.669-10.504 14.432-.786 1.114-1.709.917-2.706.923-.446.003-.343-.362-.343-.616-.005-5.996 0-11.993-.011-17.989-.001-.507.166-.676.685-.714 1.841-.135 1.839-.158 1.839 1.669v13.996c1.823-2.494 3.45-4.723 5.082-6.951 1.958-2.674 3.959-5.318 5.859-8.033.678-.969 1.532-.636 2.356-.604.35.014.257.438.257.699.005 5.956-.005 11.913.017 17.869.002.63-.264.685-.781.699-1.75.046-1.75.065-1.75-1.626v-13.754z" fill="#07071e"/><path id="XMLID_71_" class="st4" d="M382.87 185.62c0 2.759-.058 5.52.029 8.277.035 1.105-.284 1.371-1.365 1.375-1.051.003-1.334-.251-1.29-1.308.093-2.236.004-4.478.043-6.717.012-.671-.172-.884-.862-.875-2.999.036-5.999.041-8.997-.002-.755-.011-.946.222-.933.951.043 2.359-.038 4.72.04 7.077.037 1.135-.69.834-1.243.813-.525-.02-1.289.404-1.28-.775a987.3 987.3 0 0 0-.005-17.635c-.012-1.211.728-.86 1.326-.881.605-.022 1.254-.213 1.206.883-.094 2.155.008 4.319-.047 6.477-.019.754.206.937.936.927a355.04 355.04 0 0 1 8.997-.001c.673.008.876-.17.863-.855-.043-2.199.048-4.401-.044-6.597-.043-1.029.552-.909 1.117-.823.572.087 1.539-.533 1.521.813-.039 2.957-.012 5.917-.012 8.876z" fill="#07071e"/><path id="XMLID_70_" class="st4" d="M621.31 185.625c0 2.877-.026 5.754.018 8.63.012.762-.162 1.02-.969.995-1.646-.051-1.648-.001-1.648-1.637 0-4.875-.02-9.749.02-14.624.007-.814-.16-1.107-1.028-1.063a51.21 51.21 0 0 1-4.553.004c-.734-.028-.906.215-.988.925-.44 3.801-.788 7.623-1.896 11.313-.391 1.301-.867 2.569-1.775 3.62-.507.587-1.136.984-1.871 1.242-1.755.616-1.927.502-2.163-1.311-.056-.432-.074-.639.429-.728 1.571-.28 2.315-1.415 2.803-2.804 1-2.851 1.249-5.839 1.618-8.804.198-1.584.365-3.173.489-4.764.046-.596.317-.716.837-.714 3.316.013 6.633.029 9.949-.011.718-.009.739.325.736.861-.016 2.956-.008 5.913-.008 8.87z" fill="#07071e"/><path id="XMLID_69_" class="st4" d="M641.19 185.505c0 2.917-.062 5.837.029 8.751.039 1.237-.697.954-1.364.971-.672.017-1.269.162-1.254-.961.069-5.075.007-10.151.052-15.226.008-.881-.179-1.17-1.1-1.117-1.514.088-3.037.055-4.554.009-.668-.02-.837.202-.916.858-.46 3.8-.799 7.624-1.892 11.319-.329 1.112-.748 2.185-1.395 3.158a4.384 4.384 0 0 1-2.326 1.783c-1.766.595-1.821.556-2.097-1.282-.069-.459-.1-.693.463-.793 1.405-.251 2.182-1.237 2.665-2.495.879-2.294 1.162-4.717 1.478-7.127.291-2.215.519-4.44.717-6.666.056-.633.295-.793.888-.788 3.237.022 6.475.034 9.711-.006.777-.01.917.287.909.98-.033 2.877-.014 5.755-.014 8.632z" fill="#07071e"/><path id="XMLID_68_" class="st4" d="M424.709 185.577c0 2.798-.059 5.598.03 8.393.034 1.076-.271 1.305-1.303 1.3-.995-.005-1.243-.247-1.231-1.247.058-4.996 0-9.993.05-14.989.009-.913-.233-1.158-1.125-1.108a35.352 35.352 0 0 1-4.194-.001c-.966-.061-1.287.255-1.374 1.216-.295 3.259-.706 6.507-1.47 9.697-.335 1.397-.766 2.766-1.481 4.025-.778 1.37-1.928 2.196-3.509 2.407-.492.065-1.055.214-.988-.555.052-.599-.976-1.476.428-1.778 1.299-.279 2.01-1.208 2.469-2.385 1.041-2.672 1.289-5.503 1.65-8.308.229-1.781.403-3.571.565-5.36.064-.713.299-1.008 1.096-.994 3.157.053 6.316.045 9.473.004.736-.009.944.188.933.93-.044 2.917-.019 5.835-.019 8.753z" fill="#07071e"/><path id="XMLID_67_" class="st5" d="M311.272 183.106c0-3.637-.023-7.274.018-10.91.009-.792-.215-1.003-.999-.987-2.517.051-5.037-.036-7.552.046-1.033.033-.837-.57-.82-1.132.018-.575-.282-1.281.837-1.274 6.554.04 13.108.04 19.662-.001 1.113-.007.831.687.844 1.268.013.558.216 1.17-.814 1.137-2.475-.077-4.956.016-7.432-.047-.882-.023-1.137.183-1.131 1.103.042 7.233.028 14.467.01 21.701-.001.396.285 1.053-.233 1.16-.719.149-1.511.078-2.246-.049-.303-.053-.136-.567-.137-.865-.011-3.717-.007-7.434-.007-11.15z" fill="#08081f"/><path id="XMLID_66_" class="st4" d="M809.23 195.067c-2.088.638-3.293-.207-4.369-1.821-1.437-2.154-3.139-4.131-4.73-6.182-.424-.547-2.356-.975-2.942-.658-.373.202-.232.563-.233.859-.011 2.358-.062 4.718.016 7.074.043 1.318-.847.807-1.44.881-.665.082-1.177.107-1.167-.916.055-5.795.057-11.591-.001-17.386-.011-1.064.506-1.05 1.237-1.012.679.035 1.429-.234 1.376.993-.095 2.194-.002 4.396-.041 6.593-.012.683.097.945.886.972 1.097.039 1.823-.237 2.477-1.192 1.397-2.041 2.948-3.977 4.435-5.956 1.2-1.597 1.521-1.706 3.834-1.227-2.039 2.611-4.041 5.182-6.052 7.745-1.104 1.407-1.11 1.401.008 2.805l6.706 8.428z" fill="#07071e"/><path id="XMLID_65_" class="st4" d="M346.173 176.055c1.839-.5 3.029.002 4.041 1.539 1.42 2.157 3.108 4.138 4.677 6.189 1.886-2.462 3.741-4.862 5.57-7.282.85-1.124 1.976-.342 3.086-.407-.679.909-1.353 1.822-2.037 2.726-1.494 1.973-2.954 3.975-4.513 5.896-.582.717-.479 1.164.04 1.825 2.214 2.814 4.377 5.669 6.594 8.554-1.728.419-2.954.114-3.978-1.447-1.418-2.163-3.118-4.142-4.759-6.279-1.589 2.065-3.18 4.136-4.776 6.202-1.419 1.837-1.422 1.834-3.985 1.545 1.856-2.415 3.675-4.769 5.478-7.136.6-.788 1.584-1.592 1.612-2.415.025-.749-1-1.54-1.577-2.302-1.8-2.379-3.608-4.753-5.473-7.208z" fill="#07071e"/><path id="XMLID_64_" class="st5" d="M574.43 186.79c0 2.32-.034 4.64.016 6.958.021.971.024 1.528-1.302 1.545-1.442.018-1.237-.749-1.236-1.609.006-4.759-.038-9.519.034-14.277.017-1.104-.317-1.34-1.335-1.283-1.555.087-3.12-.029-4.677.043-.9.042-.866-.463-.817-1.049.044-.528-.293-1.231.765-1.224 4.879.033 9.758.024 14.637.008 1.121-.004.576.809.659 1.283.092.526.095 1.008-.739.979-1.718-.059-3.44.014-5.158-.033-.679-.019-.873.179-.863.86.039 2.6.016 5.2.016 7.799z" fill="#08081f"/><path id="XMLID_63_" class="st5" d="M781.631 186.69c0-2.478-.036-4.956.02-7.433.019-.849-.129-1.189-1.081-1.135-1.633.093-3.278-.025-4.913.044-1.059.044-.759-.658-.778-1.191-.019-.525-.199-1.093.755-1.084 4.795.043 9.591.048 14.387-.003 1.008-.011.841.566.85 1.152.009.608.115 1.182-.873 1.13-1.594-.084-3.2.047-4.793-.048-1.002-.059-1.16.317-1.153 1.21.04 4.955-.016 9.911.049 14.866.013 1.008-.382 1.109-1.17 1.038-.663-.06-1.391.254-1.333-.994.114-2.513.033-5.034.033-7.552z" fill="#08081f"/><path id="XMLID_62_" d="M452.31 185.554c0-2.836.032-5.672-.019-8.506-.016-.856.15-1.181 1.098-1.163 3.274.063 6.55.055 9.824.003.87-.014.952.358.957 1.063.005.694-.135.992-.921.976-2.475-.051-4.953.018-7.427-.039-.818-.019-.971.257-.966 1.007.031 5.072-.027 10.145.049 15.215.017 1.163-.502 1.116-1.337 1.146-.925.032-1.322-.112-1.287-1.196.089-2.833.029-5.671.029-8.506z" fill="#09091f"/><path id="path4623" d="M592.268 175.521c-2.462-.01-4.97.89-7.034 2.315-.785.542.122 1.025.268 1.518.169.57.51.262.816.066 1.08-.691 2.222-1.261 3.457-1.615 4.885-1.4 8.42 1.838 7.414 6.818-.34-.1-.675-.212-1.017-.297-3-.747-5.999-1.008-8.928.256-2.685 1.158-4 3.322-3.64 5.818.386 2.672 2.513 4.767 5.294 5.096 3.394.401 6.29-.648 8.76-3.308.11.788-.017 1.438.242 2.046.351.811 1.03 1.083 1.83 1.096.37.006.971.126 1.047-.309.113-.643.363-1.645-.103-1.939-1.015-.641-.744-1.497-.756-2.318-.04-2.84.039-5.683-.072-8.518-.094-2.417-1.143-4.425-3.305-5.635-1.337-.748-2.797-1.083-4.273-1.09zm-.377 9.829c1.691-.045 3.37.323 5.02.912.916.328.225 1.272.36 1.605.415 2.53-.9 3.788-2.625 4.764-1.466.829-3.072 1.093-4.738.922a4.295 4.295 0 0 1-3.855-3.797c-.197-1.646.829-3.146 2.783-3.842a9.8 9.8 0 0 1 3.055-.564z" fill="#07071e"/></svg>