<svg xmlns="http://www.w3.org/2000/svg" width="880" height="180" viewBox="0 0 880 180"><path fill="#fff" d="M75 40c-19.3 0-35 15.8-35 35v30c0 19.3 15.8 35 35 35h25v-18H75c-9.4 0-17-7.6-17-17V75c0-9.4 7.6-17 17-17h30c9.4 0 17 7.6 17 17v65h18V75c0-19.2-15.7-35-35-35zm140 0c-19.2 0-35 15.8-35 35v30c0 19.3 15.8 35 35 35h30c19.3 0 35-15.8 35-35V80h-50v18h32v7c0 9.4-7.6 17-17 17h-30c-9.4 0-17-7.6-17-17V75c0-9.4 7.6-17 17-17h65V40zm140 0c-19.2 0-35 15.7-35 35v30c0 19.2 15.8 35 35 35h65v-18h-65c-9.4 0-17-7.6-17-17V75c0-9.4 7.6-17 17-17h30c9.4 0 17 7.6 17 17v7h-32v18h50V75c0-19.2-15.7-35-35-35zm140 0c-19.3 0-35 15.8-35 35v65h18V75c0-9.4 7.6-17 17-17h30c9.4 0 17 7.6 17 17v65h18V75c0-19.2-15.7-35-35-35zm140 0c-19.3 0-35 15.8-35 35v30c0 19.3 15.8 35 35 35h32c15 0 28.1-9.6 33-23h-21c-3.1 3.1-7.3 5-12 5h-32c-9.4 0-17-7.6-17-17V75c0-9.4 7.6-17 17-17h32c4.7 0 8.9 1.9 12 5h21c-4.9-13.4-18-23-33-23zm105 0l41 50v50h18V90l41-50h-23l-27 33-27-33z"/></svg>