<svg xmlns="http://www.w3.org/2000/svg" viewBox="0 0 1010.8113 177.93624" height="177.936" width="1010.811"><g fill="#ffffff"><path d="M478.84 151.05h7.97l-5.345 26.886-6.21-2.475 3.585-24.41M516.394 2.377l-6.068 30.515h-14.114L501.05 0l15.344 2.377"/><path d="M486.967 147.608l45.04 1.525c-12.263 6.812-28.07 10.303-47.427 10.468-.49.007-.98.007-1.475.007H442.95V146.12l36.04 1.217h.004l7.974.27M562.215 114.684c-3.3 9.816-8.765 18.37-16.406 25.657-1.294 1.235-2.647 2.413-4.066 3.524l-51.55-3.484-8.305-.557-37.15-2.513v-12.105l39.823-3.57 9.533-.854 68.12-6.096M495.992 92.64l66.25 2.238c-.266 4.482-.868 8.762-1.814 12.852l-68.978 7.75-9.814 1.096-40.476 4.545V90.796l44.05 1.485 10.782.36M497.394 39.044l-52.053-3.52V24.678h43.064c3.82 0 7.497.126 11.043.385 4.95.357 9.632.96 14.04 1.818 4.09.798 7.953 1.8 11.577 3.023 9.155 3.085 16.563 7.255 22.227 12.512l-36.402-2.457-13.494-.914M554.904 57.296l-52.947 5.944-12.6 1.416-48.197 5.415V43.607l51.04 1.725 13.234.443 42.692 1.443c2.635 3.193 4.893 6.554 6.778 10.08M565.386 89.505c0 .956-.014 1.91-.045 2.85l-65.622-3.43-10.942-.574-44.63-2.333V74.62l47.188-3.694 12.15-.95 58.184-4.556c2.478 7.284 3.718 15.31 3.718 24.085M252.665 71.04c-4.58 4.61-6.87 10.583-6.87 17.928 0 7.346 2.29 13.322 6.87 17.927 4.577 4.613 10.11 6.915 16.612 6.915 6.65 0 12.204-2.285 16.67-6.855 4.46-4.57 6.694-10.564 6.694-17.987 0-7.345-2.334-13.318-6.988-17.927-4.655-4.61-10.115-6.914-16.375-6.914-6.5 0-12.035 2.303-16.612 6.915m-25.77 17.928c0-11.87 4.09-21.915 12.266-30.113 8.18-8.205 18.22-12.305 30.117-12.305 11.815 0 21.814 4.04 29.995 12.13 8.18 8.08 12.27 18.183 12.27 30.288 0 12.032-4.09 22.112-12.27 30.232-8.18 8.124-18.18 12.186-29.995 12.186-11.817 0-21.837-4.045-30.06-12.126-8.215-8.086-12.322-18.182-12.322-30.292M223.03 46.58v84.733l-56.3-41.322v41.323h-20.37V46.58l56.292 43.28V46.58h20.377M46.62 112.408c2.087-1.423 3.13-3.21 3.13-5.365 0-2.157-1.12-3.983-3.37-5.483-2.246-1.502-5.02-2.736-8.32-3.707-3.296-.968-6.926-2.037-10.892-3.207-3.964-1.163-7.61-2.558-10.932-4.178-3.326-1.623-6.107-4.07-8.35-7.35-2.243-3.28-3.363-7.237-3.363-11.863 0-6.715 2.918-12.5 8.757-17.366 5.835-4.86 13.394-7.29 22.67-7.29 13.685 0 24.275 4.975 31.78 14.93L55.664 73.104c-5.877-6.48-12.68-9.722-20.41-9.722-8.117 0-12.176 2.47-12.176 7.413 0 1.874 1.14 3.445 3.426 4.717 2.288 1.276 5.07 2.38 8.348 3.302 3.276.93 6.91 1.955 10.897 3.088 3.986 1.125 7.628 2.52 10.928 4.166 3.3 1.646 6.063 4.163 8.288 7.54 2.224 3.376 3.34 7.386 3.34 12.02 0 7.33-2.938 13.444-8.813 18.344-5.877 4.904-13.184 7.352-21.917 7.352-9.203 0-17.01-1.853-23.427-5.557-6.42-3.702-11.134-8.45-14.15-14.24l13.105-10.877c2.706 4.325 6.146 7.713 10.323 10.188 4.172 2.47 8.732 3.703 13.682 3.703 4.253 0 7.424-.712 9.51-2.135M72.993 131.326V46.58h64.895v17.556H91.79v15.737h43.06v16.95h-43.06v16.948h47.185v17.556H72.992M351.34 64.24h-15.145v20.68h15.876c4.603 0 8.154-.925 10.66-2.78 2.505-1.857 3.76-4.48 3.76-7.864 0-3.3-1.11-5.807-3.336-7.497-2.22-1.697-6.16-2.54-11.815-2.54m-15.145 67.115H317.42V46.708h34.284c6.462 0 12.017.767 16.665 2.295 4.64 1.535 8.196 3.648 10.656 6.347 2.464 2.706 4.242 5.586 5.335 8.65 1.09 3.063 1.634 6.49 1.634 10.276 0 5.485-1.496 10.483-4.483 14.997-2.985 4.517-7.026 7.78-12.11 9.796l23.625 32.285h-22.663l-20.696-28.9h-13.47v28.9M736.708 32.744c0-2.49.99-4.598 2.985-6.315 1.994-1.72 4.318-2.577 6.975-2.577 2.498 0 4.724.84 6.683 2.516 1.954 1.678 2.93 3.805 2.93 6.374 0 2.576-.976 4.72-2.93 6.435-1.958 1.72-4.184 2.58-6.682 2.58-2.738 0-5.08-.842-7.034-2.517-1.956-1.677-2.927-3.845-2.927-6.5m-21.285 38.382c-4.57 4.605-6.855 10.574-6.855 17.902 0 7.336 2.285 13.304 6.855 17.907 4.574 4.6 10.105 6.9 16.588 6.9 6.646 0 12.194-2.28 16.65-6.845 4.456-4.564 6.682-10.55 6.682-17.962 0-7.33-2.323-13.298-6.974-17.903-4.648-4.6-10.102-6.905-16.358-6.905-6.483 0-12.014 2.306-16.588 6.905m-7.906-38.38c0-2.57.953-4.697 2.866-6.376 1.914-1.676 4.28-2.518 7.094-2.518 2.5 0 4.75.86 6.74 2.577 1.994 1.716 2.99 3.823 2.99 6.314 0 2.576-.996 4.72-2.99 6.435-1.99 1.72-4.24 2.58-6.74 2.58-2.814 0-5.18-.842-7.094-2.517-1.913-1.677-2.866-3.846-2.866-6.5M689.69 89.028c0-11.857 4.084-21.88 12.254-30.07 8.168-8.188 18.186-12.284 30.066-12.284 11.8 0 21.79 4.033 29.96 12.108 8.162 8.076 12.25 18.163 12.25 30.248 0 12.01-4.088 22.08-12.25 30.193-8.17 8.11-18.16 12.166-29.96 12.166s-21.803-4.037-30.007-12.112c-8.208-8.075-12.313-18.155-12.313-30.247M635.928 64.238h-7.88v49.607h7.88c19.795 0 29.698-8.632 29.698-25.894 0-15.805-9.903-23.712-29.698-23.712m-26.672 67.148V46.694h26.913c8.806 0 16.444 1.09 22.91 3.266 6.463 2.18 11.534 5.225 15.214 9.136 3.672 3.915 6.382 8.248 8.12 13.007 1.736 4.76 2.605 10.04 2.605 15.848 0 12.906-4.2 23.37-12.608 31.398-8.405 8.026-21.096 12.038-38.062 12.038h-25.094M862.36 131.386V46.613h64.914v17.562H881.16v15.74h43.076V96.87H881.16v16.954h47.2v17.562h-66M969.074 64.18H953.91v20.71h15.9c4.6 0 8.164-.93 10.664-2.79 2.512-1.855 3.775-4.48 3.775-7.874 0-3.31-1.126-5.81-3.34-7.506-2.236-1.692-6.174-2.54-11.836-2.54m-15.163 67.206H935.1V46.62h34.336c6.475 0 12.038.768 16.688 2.3 4.65 1.534 8.2 3.65 10.675 6.36 2.474 2.703 4.25 5.59 5.336 8.656 1.1 3.068 1.638 6.5 1.638 10.29 0 5.493-1.5 10.498-4.488 15.015-3 4.53-7.037 7.792-12.137 9.815l23.66 32.33h-22.686l-20.725-28.94h-13.49v28.94M855.686 46.61v84.776L799.363 90.04v41.346H778.98V46.61l56.32 43.304V46.61h20.386"/></g></svg>